<?xml version="1.0" encoding="UTF-8"?>
<!-- Generator: Adobe Illustrator 27.2.0, SVG Export Plug-In . SVG Version: 6.00 Build 0)  -->
<svg xmlns="http://www.w3.org/2000/svg" xmlns:xlink="http://www.w3.org/1999/xlink" version="1.1" id="Layer_1" x="0px" y="0px" viewBox="0 0 229.2 150" style="enable-background:new 0 0 229.2 150;" xml:space="preserve">
<style type="text/css">
	.st0{fill-rule:evenodd;clip-rule:evenodd;fill:#FFFFFF;}
	.st1{fill-rule:evenodd;clip-rule:evenodd;}
</style>
<g>
	<path class="st0" d="M0,0h219.1v150H0V0z M220.6,136.5h3.6v0.4h-1.5v4.1h-0.6v-4.1h-1.5V136.5z M228.5,141v-2.6v-1.3l-1.3,3.9h-0.4   l-1.3-3.9v3.9h-0.6v-4.5h0.9l1.3,3.9l1.3-3.9h0.9v4.5H228.5z"></path>
	<path class="st1" d="M4.3,143.4v0.4c0,0.2,1.5,0.9,3,0.9c1.3,0,1.9-0.2,1.9-0.9c0-1.1-5.6,0.2-5.6-2.6c0-1.3,1.3-2.1,3.2-2.1   s3.2,0.4,3.6,0.4c0.2,0,0.2,0,0.2-0.2l0.2,0.2l-0.9,1.7H9.8V141c0-0.2-1.5-0.6-2.8-0.6s-1.7,0.2-1.7,0.6c0,1.3,5.8-0.2,5.8,2.8   c0,1.3-0.9,2.6-3.9,2.6c-2.4,0-3.2-0.6-3.6-0.6c0,0-0.2,0-0.2,0.2l-0.2-0.2L4.3,143.4L4.3,143.4z M17.1,140.4l1.3,3.2h-2.6   L17.1,140.4z M18.6,144.7c0.2,0.2,0.6,1.1,0.6,1.3h-0.4v0.2h2.8v-0.2c-0.2,0-0.2,0-0.4-0.2c-0.8-2.1-1.7-4.1-2.6-6.2   c0-0.2,0.2-0.2,0.4-0.2v-0.2h-3.6v0.2h0.2c0,0.2-2.1,6.2-2.4,6.4c0,0.2-0.2,0.2-0.4,0.2v0.2h2.6v-0.2H15c0-0.2,0.2-0.2,0.6-1.3   H18.6z M31.2,141H31c0-0.2,0-0.2-0.2-0.2h-4.5v1.1h3c0.2,0,0.2,0,0.2-0.2h0.2v2.4h-0.2c0-0.4,0-0.4-0.2-0.4h-3v2.1   c0,0.2,0,0.2,0.4,0.2v0.2H24v-0.2c0.2,0,0.2,0,0.2-0.2v-6.2c0-0.2,0-0.2-0.2-0.2v-0.2h6.8c0.2,0,0.2,0,0.2-0.4h0.2L31.2,141   L31.2,141z M39.2,143.6h-0.2c0-0.2-0.2-0.2-0.4-0.2h-2.6v1.3h4.5c0,0,0.2-0.2,0.2-0.4v2.4c0-0.2-0.2-0.4-0.2-0.4h-6.8v-0.2   c0.4,0,0.4,0,0.4-0.2v-6.2c0-0.2,0-0.2-0.4-0.2v-0.2h6.8c0,0,0.2,0,0.2-0.4v2.4c0-0.2-0.2-0.4-0.2-0.4h-4.5v1.3h2.6   c0.2,0,0.4-0.2,0.4-0.4h0.2L39.2,143.6L39.2,143.6z M45.8,140.6h2.1c0.9,0,1.1,0.4,1.1,0.9c0,0.2-0.2,0.6-1.1,0.6h-2.1V140.6z    M45.8,143.6h1.3c0.2,0.2,1.5,2.1,1.5,2.1c0,0.2,0,0.2-0.2,0.2v0.2h2.8v-0.2c-0.2,0-0.2,0-0.4-0.2l-1.5-2.1   c1.1-0.4,1.9-1.1,1.9-2.4c0-1.5-0.9-2.1-3-2.1h-4.9v0.2c0.4,0,0.4,0,0.4,0.2v6.2c0,0.2,0,0.2-0.4,0.2v0.2H46v-0.2   c-0.2,0-0.2,0-0.2-0.2L45.8,143.6L45.8,143.6z M58.8,142.7c0,0.9-0.9,1.5-1.7,1.5c-0.9,0-1.5-0.6-1.5-1.5c0-0.9,0.6-1.7,1.5-1.7   C58,141,58.8,141.9,58.8,142.7z M154.3,142.7c0,0.9-0.9,1.5-1.7,1.5s-1.5-0.6-1.5-1.5c0-0.9,0.6-1.7,1.5-1.7   C153.4,141,154.3,141.9,154.3,142.7z M71.3,145.7c0,0.2,0,0.2,0.4,0.2v0.2h-2.8v-0.2c0.2,0,0.4,0,0.4-0.2v-2.4h-3.6v2.4   c0,0.2,0,0.2,0.4,0.2v0.2h-2.8v-0.2c0.4,0,0.4,0,0.4-0.2v-6.2c0-0.2,0-0.2-0.4-0.2v-0.2h2.8v0.2c-0.4,0-0.4,0-0.4,0.2v2.1h3.6v-2.1   c0-0.2-0.2-0.2-0.4-0.2v-0.2h2.8v0.2c-0.4,0-0.4,0-0.4,0.2V145.7L71.3,145.7z M80,143.6h-0.2c0-0.2,0-0.2-0.4-0.2H77v1.3h4.3   c0.2,0,0.2-0.2,0.2-0.4h0.2v2.4h-0.2c0-0.2,0-0.4-0.2-0.4h-6.8v-0.2c0.4,0,0.4,0,0.4-0.2v-6.2c0-0.2,0-0.2-0.4-0.2v-0.2h6.8   c0.2,0,0.2,0,0.2-0.4h0.2v2.4h-0.2c0-0.2,0-0.4-0.2-0.4H77v1.3h2.4c0.4,0,0.4-0.2,0.4-0.4H80V143.6L80,143.6z M87.7,140.4l1.3,3.2   h-2.4L87.7,140.4z M89.4,144.7c0,0.2,0.4,1.1,0.4,1.3h-0.2v0.2h2.8v-0.2c-0.2,0-0.4,0-0.4-0.2c-0.9-2.1-2.6-6.2-2.6-6.2   c0-0.2,0-0.2,0.2-0.2v-0.2h-3.4v0.2h0.2c0,0.2-2.4,6.2-2.4,6.4c-0.2,0.2-0.2,0.2-0.4,0.2v0.2H86v-0.2h-0.2c0-0.2,0-0.2,0.4-1.3   H89.4L89.4,144.7z M97.1,144.7h4.5c0.2,0,0.2-0.2,0.4-0.4v2.4c-0.2-0.2-0.2-0.4-0.4-0.4h-7.1v-0.2c0.4,0,0.4,0,0.4-0.2v-6.2   c0-0.2,0-0.2-0.4-0.2v-0.2h2.8v0.2c-0.2,0-0.2,0-0.2,0.2L97.1,144.7L97.1,144.7z M105.1,146.1v-0.2c0.2,0,0.4,0,0.4-0.2v-4.9h-2.4   c-0.2,0-0.2,0-0.2,0.2h-0.2v-2.4h0.2c0,0.4,0,0.4,0.2,0.4h6.6c0.2,0,0.2,0,0.2-0.4h0.2v2.4H110c0-0.2,0-0.2-0.2-0.2h-2.4v4.9   c0,0.2,0,0.2,0.4,0.2v0.2H105.1z M120.3,145.7c0,0.2,0,0.2,0.4,0.2v0.2h-2.8v-0.2c0.2,0,0.4,0,0.4-0.2v-2.4h-3.6v2.4   c0,0.2,0,0.2,0.4,0.2v0.2h-2.8v-0.2c0.2,0,0.4,0,0.4-0.2v-6.2c0-0.2-0.2-0.2-0.4-0.2v-0.2h2.8v0.2c-0.4,0-0.4,0-0.4,0.2v2.1h3.6   v-2.1c0-0.2-0.2-0.2-0.4-0.2v-0.2h2.8v0.2c-0.4,0-0.4,0-0.4,0.2L120.3,145.7L120.3,145.7z M123.7,146.1v-0.2c0.4,0,0.4,0,0.4-0.2   v-6.2c0-0.2,0-0.2-0.4-0.2v-0.2h2.8v0.2c-0.4,0-0.4,0-0.4,0.2v6.2c0,0.2,0,0.2,0.4,0.2v0.2H123.7z M135,143.6h-0.2   c0-0.2-0.2-0.2-0.4-0.2h-2.6v1.3h4.5c0,0,0-0.2,0.2-0.4v2.4c-0.2-0.2-0.2-0.4-0.2-0.4h-6.8v-0.2c0.4,0,0.4,0,0.4-0.2v-6.2   c0-0.2,0-0.2-0.4-0.2v-0.2h6.8l0.2-0.4v2.4c-0.2-0.2-0.2-0.4-0.2-0.4h-4.5v1.3h2.6c0.2,0,0.4-0.2,0.4-0.4h0.2V143.6L135,143.6z    M141.6,140.6h2.1c0.9,0,1.1,0.4,1.1,0.9c0,0.2-0.2,0.6-1.1,0.6h-2.1V140.6z M141.6,143.6h1.3c0.2,0.2,1.5,2.1,1.5,2.1   c0,0.2,0,0.2-0.2,0.2v0.2h2.8v-0.2c-0.2,0-0.2,0-0.4-0.2l-1.5-2.1c1.1-0.4,1.9-1.1,1.9-2.4c0-1.5-0.9-2.1-3-2.1h-4.9v0.2   c0.4,0,0.4,0,0.4,0.2v6.2c0,0.2,0,0.2-0.4,0.2v0.2h2.8v-0.2c-0.2,0-0.2,0-0.2-0.2L141.6,143.6L141.6,143.6L141.6,143.6z    M161.6,140.6h2.1c0.6,0,1.1,0.2,1.1,0.9c0,0.4-0.4,0.6-1.1,0.6h-2.1V140.6z M161.6,143.6h2.6c1.5,0,2.6-1.1,2.6-2.1   c0-1.3-1.1-2.4-2.6-2.4h-4.9v0.2c0.2,0,0.4,0,0.4,0.2v6.2c0,0.2-0.2,0.2-0.4,0.2v0.2h2.8v-0.2c-0.4,0-0.4,0-0.4-0.2L161.6,143.6   L161.6,143.6z M174.4,143.6h-0.2c0-0.2-0.2-0.2-0.4-0.2h-2.6v1.3h4.5c0,0,0.2-0.2,0.2-0.4h0.2v2.4h-0.2c0-0.2-0.2-0.4-0.2-0.4h-6.8   v-0.2c0.4,0,0.4,0,0.4-0.2v-6.2c0-0.2,0-0.2-0.4-0.2v-0.2h6.8c0,0,0.2,0,0.2-0.4h0.2v2.4h-0.2c0-0.2-0.2-0.4-0.2-0.4h-4.5v1.3h2.6   c0.2,0,0.4-0.2,0.4-0.4h0.2V143.6L174.4,143.6z M182.3,140.6c1.3,0,2.4,0.9,2.4,2.1c0,1.3-1.1,1.9-2.4,1.9c-1.1,0-2.1-0.6-2.1-1.9   C180.2,141.4,181.2,140.6,182.3,140.6z M182.3,139.1c-2.4,0-4.3,1.3-4.3,3.6c0,2.4,1.9,3.6,4.3,3.6s4.3-1.3,4.3-3.6   C186.6,140.4,184.7,139.1,182.3,139.1z M191.5,140.6h1.9c0.9,0,1.1,0.2,1.1,0.9c0,0.4-0.2,0.6-1.1,0.6h-1.9V140.6z M191.5,143.6   h2.4c1.7,0,2.6-1.1,2.6-2.1c0-1.3-0.9-2.4-2.6-2.4h-4.9v0.2c0.4,0,0.4,0,0.4,0.2v6.2c0,0.2,0,0.2-0.4,0.2v0.2h2.8v-0.2   c-0.2,0-0.2,0-0.2-0.2L191.5,143.6L191.5,143.6z M201.1,144.7h4.7c0,0,0.2-0.2,0.2-0.4v2.4c0-0.2-0.2-0.4-0.2-0.4h-7.1v-0.2   c0.2,0,0.2,0,0.2-0.2v-6.2c0-0.2,0-0.2-0.2-0.2v-0.2h2.8v0.2c-0.4,0-0.4,0-0.4,0.2V144.7L201.1,144.7L201.1,144.7z M214,143.6h-0.2   c0-0.2-0.2-0.2-0.4-0.2h-2.6v1.3h4.3c0.2,0,0.2-0.2,0.4-0.4v2.4c-0.2-0.2-0.2-0.4-0.4-0.4h-6.6v-0.2c0.2,0,0.4,0,0.4-0.2v-6.2   c0-0.2-0.2-0.2-0.4-0.2v-0.2h6.6c0.2,0,0.2,0,0.4-0.4v2.4c-0.2-0.2-0.2-0.4-0.4-0.4h-4.3v1.3h2.6c0.2,0,0.4-0.2,0.4-0.4h0.2V143.6   L214,143.6z M3.4,3.4h212.9v128.2H3.4L3.4,3.4L3.4,3.4z"></path>
	<path class="st0" d="M90.9,131.8L216.3,4.7V3.4h-0.6L89,131.8H90.9L90.9,131.8z M11.8,131.8L20.3,3.4H19l-8.6,128.4H11.8   L11.8,131.8z M18.6,131.8L37,3.4h-1.5L17.3,131.8H18.6z M25.9,131.8L54.6,3.4h-1.5L24.4,131.8H25.9z M33.8,131.8L74.7,3.4h-1.3   L32.5,131.8H33.8L33.8,131.8z M41.3,131.8L93.9,3.4h-1.5L40,131.8H41.3L41.3,131.8z M50.1,131.8L115.8,3.4h-1.5L48.6,131.8H50.1   L50.1,131.8z M148.5,3.4H147L61.8,131.8h1.7L148.5,3.4z M178.9,3.4h-1.7L73.8,131.8h1.7L178.9,3.4z M216.3,52v-1.7l-102.5,81.5h2.1   L216.3,52z M216.3,87.3v-1.5l-73.6,46h2.4L216.3,87.3z M216.3,120.5v-1.3l-27.2,12.6h3.2L216.3,120.5z"></path>
	<path class="st0" d="M51.1,92.7c-22,0-37.2-13.7-37.2-35.7c0-21.6,16-36.6,37.4-36.6c5.6,0,12,1.1,16.7,3.2v10.7   c-2.4-3.2-7.1-8.8-16.5-8.8c-13.3,0-21,12.2-21,30c0,18.6,7.1,31.7,22.3,31.7c5.3,0,12.2-2.6,15.2-5.6l2.6,5.6   C67.6,89.4,62.3,92.7,51.1,92.7L51.1,92.7z M123.5,56.5c0,27.4-16.9,29.3-29.7,29.3V26.7C107,26.8,123.5,28.5,123.5,56.5z    M105.9,91.4c13.5,0,34-8.3,34-35.1c0-28.5-20.3-34.9-35.7-34.9H78.7v70H105.9L105.9,91.4z M185.3,92.7   c-22.3,0-37.2-13.7-37.2-35.7c0-21.6,16-36.6,37.2-36.6c5.8,0,12,1.1,16.7,3.2v10.7c-2.4-3.2-7.1-8.8-16.5-8.8   c-13.3,0-20.8,12.2-20.8,30c0,18.6,7.1,31.7,22.3,31.7c5.3,0,12-2.6,15-5.6l2.6,5.6C201.6,89.4,196.2,92.7,185.3,92.7L185.3,92.7z"></path>
</g>
</svg>
