<?xml version="1.0" encoding="UTF-8"?>
<!-- Generator: Adobe Illustrator 27.2.0, SVG Export Plug-In . SVG Version: 6.00 Build 0)  -->
<svg xmlns="http://www.w3.org/2000/svg" xmlns:xlink="http://www.w3.org/1999/xlink" version="1.1" id="Layer_1" x="0px" y="0px" viewBox="0 0 960.6 150" style="enable-background:new 0 0 960.6 150;" xml:space="preserve">
<path d="M116.1,44.8v25.7h22.7c6.1,0,11-4.9,11-11V11c0-6.1-4.9-11-11-11H90.4c-6.1,0-11,4.9-11,11v22.7h25.7  C111.2,33.7,116.1,38.6,116.1,44.8z M33.7,44.8v25.7H11c-6.1,0-11-4.9-11-11V11C0,4.9,4.9,0,11,0h48.5c6.1,0,11,4.9,11,11v22.7H44.8  C38.6,33.7,33.7,38.6,33.7,44.8z"></path>
<path d="M33.7,105.2V79.4H11c-6.1,0-11,4.9-11,11V139c0,6.1,4.9,11,11,11h48.5c6.1,0,11-4.9,11-11v-22.9H44.8  C38.6,116.1,33.7,111.2,33.7,105.2L33.7,105.2z M116.1,105.2V79.4h22.7c6.1,0,11,4.9,11,11V139c0,6.1-4.9,11-11,11H90.4  c-6.1,0-11-4.9-11-11v-22.9h25.7C111.2,116.1,116.1,111.2,116.1,105.2L116.1,105.2z"></path>
<path d="M411.5,113.3v-0.5 M248.6,90.1c-2.5,17-13.9,27.2-31,27.2c-23.5,0-34-21.7-34-42.4c0-20.8,10.6-42.5,34-42.5  c17,0,28.2,9.8,31,27.2l-15.8,2c-1.6-8.5-5.3-16.4-15.3-16.4c-14.2,0-17,18.9-17,29.5s2.8,29.5,17,29.5c9.9,0,13.7-7.7,15.4-16.2  L248.6,90.1L248.6,90.1z M258.2,33.7H274v82.4h-15.8V33.7z M320,80.3c0-6.6-2.7-13.2-10.1-13.2c-7.1,0-9.9,6.9-10.3,13.2H320z   M299,90.1c-0.5,7.3,3.6,15.6,11.6,15.6c5,0,8.2-3.3,9.9-8.7l14.6,1.7c-3.3,11.8-14.6,18.4-26,18.4c-17.3,0-26-15.3-26-30.9  c0-15.8,8.7-30.9,26-30.9c15,0,26.3,7.1,26,34.7L299,90.1L299,90.1z M431.4,80.3c0-6.6-2.7-13.2-10.3-13.2c-7.1,0-9.9,6.9-10.3,13.2  H431.4z M410.6,90.1c-0.5,7.3,3.6,15.6,11.6,15.6c5,0,8.2-3.3,9.9-8.7l14.6,1.7c-3.3,11.8-14.6,18.4-26,18.4  c-17.3,0-26-15.3-26-30.9c0-15.8,8.7-30.9,26-30.9c15,0,26.3,7.1,26,34.7L410.6,90.1L410.6,90.1z M374.2,116.1h-16.6l-18.4-59.2  h16.4l10.4,43.8h0.2l10.3-43.8h15.8 M457.3,33.7h15.8v82.4h-15.8V33.7z M516.9,89c-6.5,1.1-19.2,1.7-19.2,10.6  c0,3.5,1.7,6.3,5.3,6.3c6.5,0,10.9-3.8,13.9-7.7V89L516.9,89z M517.9,110.6c-5.8,4.1-9.5,6.8-16.9,6.8c-10.3,0-18.6-6.9-18.6-17.5  c0-16.7,22.1-20.2,34.7-21.4c1.1-8.2-1.7-11.2-7.6-11.2c-5,0-8.5,2.2-9.5,7.4l-15-2.4c3.5-12.6,12-16.7,24.4-16.7  c15.9,0,23.3,7.6,23.3,18.7v29.5c0,4.3,0.2,8.5,2,12.4h-15.1C518.3,113.5,517.9,110.6,517.9,110.6L517.9,110.6z M560.8,63  c5-4.1,11.2-7.4,17.6-7.4c6.5,0,15.6,4,15.6,18.6v42.1h-15.8V80.5c0-4.7,0.3-12.3-6.5-12.3c-4.6,0-8.2,3.3-11.2,6.5v41.6h-15.8V56.9  h15.8L560.8,63z M755.9,90.1c-2.5,17-13.9,27.2-31,27.2c-23.5,0-34-21.7-34-42.4c0-20.8,10.4-42.5,34-42.5c17,0,28.2,9.8,31,27.2  l-15.6,2c-1.6-8.5-5.3-16.4-15.3-16.4c-14.2,0-17,18.9-17,29.5s2.8,29.5,17,29.5c9.9,0,13.7-7.7,15.3-16.2L755.9,90.1L755.9,90.1z   M765.4,33.7H781v82.4h-15.6V33.7z M809.8,116.1H794V56.9h15.8V116.1z M809.8,48.2H794V33.9h15.8V48.2z M838.3,63  c5-4.1,11.2-7.4,17.6-7.4s15.6,4,15.6,18.6v42.1h-15.8V80.5c0-4.7,0.3-12.3-6.5-12.3c-4.6,0-8.2,3.3-11.2,6.5v41.6h-15.6V56.9h15.6  L838.3,63L838.3,63z M900.2,116.1h-15.8V56.9h15.8V116.1z M900.2,48.2h-15.8V33.9h15.8V48.2z M960.6,96.9  c-2.5,12.4-11.5,20.5-24.7,20.5c-17.3,0-26-15.3-26-30.9c0-15.8,8.7-30.9,26-30.9c13.2,0,22.2,8,24.7,20.5L946.4,78  c-1.1-4.7-2.7-10.9-10.6-10.9c-8.5,0-9.9,12-9.9,19.4c0,7.4,1.4,19.4,9.9,19.4c7.9,0,9.1-5.3,10.6-10.7L960.6,96.9L960.6,96.9z   M641.4,97.4c-2.4,3.6-5.5,6.8-10.1,6.8c-9.5,0-10.9-11.5-10.9-18.6c0-6.6,1.7-17.6,10.6-17.6c4.6,0,7.7,3.2,10.4,6.5L641.4,97.4  L641.4,97.4z M657,105.6V33.7h-15.8v28.8c-4.4-4-8.2-7.1-14.6-7.1C618.3,55.6,605,63,605,85.1c0,25.1,11,32.5,23,32.5  c6.6,0,10.1-2.2,14.8-6.5c0,0,0.5,2.8,1.7,5.2H659C657.4,112.8,657.1,109.2,657,105.6L657,105.6z"></path>
</svg>
