<?xml version="1.0" encoding="UTF-8"?>
<!-- Generator: Adobe Illustrator 27.2.0, SVG Export Plug-In . SVG Version: 6.00 Build 0)  -->
<svg xmlns="http://www.w3.org/2000/svg" xmlns:xlink="http://www.w3.org/1999/xlink" version="1.1" id="Layer_1" x="0px" y="0px" viewBox="0 0 198.5 198.9" style="enable-background:new 0 0 198.5 198.9;" xml:space="preserve">
<g id="a">
</g>
<g id="b">
	<g>
		<g>
			<g>
				<path d="M173,36.4c0.3,6.5-4.8,10.5-8.7,14.3l-39.8,33.5c-3.6,3.3-8.7,6.1-10.8,11.1c-2.6,6.6-3.6,13.9-4.8,21.2      c-0.6,5.2-5.6,9.8-10.1,11.7c-3.5,1.2-7.8,0.7-11.7,1l-13.9,0.1c-1.2,0.3-2.2,0.9-2.8,1.8l-0.5,1.4c-1.5,0.2-1-1.1-1.2-2      c0-3,0.7-6.2,3-8c1.2-1.2,2.9-1.5,4.6-1.8l20.2-0.3c1.1,0,2-0.7,2.8-1.3l0.8-1.6c1.6-10.1,2.5-20.5,7.5-29.1      c4.7-5.4,10.5-9.2,15.7-13.9c12-10.2,24.4-20.5,36.3-30.9c3.4-3.2,6.9-7.4,7.7-12.4l0.4-1.3C170.6,30.7,172.9,33.3,173,36.4"></path>
				<path d="M184.7,47.7c0.6,6.3-4.3,9.3-8.3,13.1l-16.2,13.9l-28.9,24.5c-4.1,4.6-4.3,11.1-5.3,17.1c0.2,1.9,2.1,2.7,1.7,4.7      l-4,7.2c0.2,2.9,3.7,1.2,4.9,3c0,1-0.7,2.3,0.2,3.2c0.6,1,2.9-0.3,1.7,1.2c-0.3,0.3-0.2,0.9-0.1,1.2c0.5,0.6,1.4,0.7,1.5,1.6      c-0.4,1.2-0.4,2.9,0.3,3.9c5,5.5,13.6-1.3,18.8,3.8c1.3,1.2,1.3,3.3,0.9,5c-2.8,8.2-19.3,8.8-13.6,20.4c1,1.9,3.2,3.2,5.4,3.3      c1.9,0.3,3.3-0.5,4.8-1c0.5,0,0.5,0.5,0.7,0.7v0.3c-4.8,3.4-10.9,8.4-17.3,4.8c-3.2-2-4.8-6.1-4-10.2c1.9-6.4,9.3-8,13-13.4      c0.9-1.6,0.7-3.6-0.2-5.2c-1.2-2.1-3.9-2.7-6.3-3.1c-4-0.1-10,2.4-11.8-2.2c-0.5-1.8,1.3-4.9-1.5-5.3c-0.4-0.5-1.3-0.9-0.8-1.7      c0.1-0.5,0.9-0.5,0.5-1.1c-0.6-0.2-1.3,0-1.8-0.5c-1.6-1.8,2.8-3.7-0.2-4.9c-1.5-0.2-3.6,0.9-4.6-0.8c-0.5-1.6,0.7-2.8,1.3-4.1      c1-2.3,4-3.8,3.2-6.7l-1.5-2.5c0.4-5.8,1.4-11.5,2.9-17c2-6.1,7.9-9.5,12.4-13.7l24.2-20.5l17.1-15.1c3-2.8,5.6-5.9,5.5-10      c0.9-0.3,1.5,0.8,2.3,1.1C183.1,44.5,184.3,45.7,184.7,47.7"></path>
			</g>
			<g>
				<path d="M178.2,78.2c-3.2,5.1-8.5,8.9-13.3,12.9l-18.6,15.6c-3.4,3.1-4.3,8.4-2.8,12.6c0.2,2.1-1.5,3.4-2,5.3      c0.1,0.5,0.2,1.3,0.7,1.4c0.8,0.3,1.9-0.1,2.4,0.9c0.1,1.1-0.4,2.3,0.8,2.7c0.5,0.3,1.2-0.6,1.2,0.3c-0.3,0.5-0.5,0.9-0.4,1.5      c0.6,1.1,1.9,0.5,2.5,1.4c0.2,1.3,0.2,2.9,1.7,3.4c4.8,0.8,8.5-2.5,12.8-3.4c6.9-2.2,13.6,0.5,19.7,2.4c3.1,0.5,6.5,0.4,9.5,0      l0.2,0.2c-3.9,4.8-8.7,9.4-15.6,9c-7.2-0.3-11.8-7-19.5-5.7c-5.2,1-10.4,4.2-16,2.1c-1.4-1.2-2-3.2-1.5-5.3      c-0.3-1.2-3.3-1.5-1.4-3.2c-0.6-0.4-1.6,0-1.9-0.9c-0.4-1,0.8-2.5-0.5-3.1c-1.2-0.2-2.7,0.5-3.5-0.5c-0.5-0.6-0.4-1.4-0.2-2.2      c0.8-2,3.1-3.5,2.6-5.9c-1.5-1.4-1-3.8-0.8-5.8c0.9-4.6,1.2-9.4,5.5-12.4l22.9-19.3c4.8-4.6,10.8-7.6,14.3-13.6      C178.8,71.2,179.6,75.2,178.2,78.2"></path>
				<path d="M108.2,145.9c6.5,2.8,13.3,5.5,19.1,9.3c1.4,1.2,2.7,2.9,2.5,5.1c-2,8.2-13.4,9.1-11.8,18.8c0.5,3.6,2.9,6.8,6.4,7.8      c1.6,0.5,3.7,0.5,5.3,0c0.3,0.6,1.4,1.2,0.1,1.7c-4.7,3-10.7,6.4-16.4,3.5c-2.8-1.3-4.4-4.3-5.2-7.2c-1.2-8.8,7-11.6,11.2-17.4      c0.6-1.2,0.9-2.5,0.6-3.9c-0.8-1.6-2-2.7-3.5-3.6c-15.4-8.6-32.2-14.5-49.4-18.9c-2.9-0.3-7.3-1.9-9.2,1.4v0.2      c-1.5,0.3-0.9-1.5-0.9-2.4c0.5-2.8,2.1-5.1,4.7-6.2c4.5-1.3,9.2,0.3,13.6,1C86.5,138,97.6,141.5,108.2,145.9"></path>
			</g>
		</g>
		<g>
			<path d="M104.5,181.9c-1.4,0.1-1.4,0.2-1.5,0.5c-0.1,0.4,0,1.5,0,3.4c0.1,2,0.1,3,0.1,3.4c0.1,0.3,0.1,0.4,1.5,0.4v0.5l-4.4,0.1     c-1.8,0-2.6-0.3-3.5-1.1c-0.8-0.7-1.3-1.8-1.3-3.2c0-2.2,1.3-4.5,4.8-4.6l4.2-0.1L104.5,181.9L104.5,181.9z M101.5,182.6     c0-0.5-0.1-0.5-0.9-0.5c-2.4,0-3.4,1.2-3.4,3.9c0.1,2.8,1.1,3.8,3.5,3.8c0.8,0,0.9-0.1,0.9-0.3L101.5,182.6L101.5,182.6z"></path>
			<path d="M94.8,182c-1.2,0-1.3,0-1.3,0.4c-0.1,0.4-0.2,1.4-0.3,3.4c-0.2,1.9-0.3,2.9-0.2,3.4c0,0.4,0.1,0.4,1.2,0.6v0.5l-4.8-0.4     c-0.7-0.1-1.5-0.1-2,0c0-0.6,0-2.1,0-2.4H88c0.2,1.7,0.5,1.9,2.2,2l1.1,0.1c0.1,0,0.2,0,0.3-0.2l0.2-2.9c0-0.2,0-0.2-0.4-0.3H91     c-1.4-0.1-1.5,0.1-1.7,1h-0.5c0.1-0.4,0.1-0.8,0.2-1.4c0-0.5,0.1-1.1,0.1-1.4h0.6c0,0.9,0.1,1.2,1.1,1.2l0.9,0.1     c0.1,0,0.2,0,0.2-0.2l0.3-3.2c0-0.2-0.1-0.3-0.2-0.3l-2.2-0.2c-1-0.1-1.3,0.2-1.6,1l-0.4,0.8l-0.6-0.2c0.2-0.7,0.5-1.9,0.6-2.4     l7.1,0.6C94.8,181.5,94.8,182,94.8,182z"></path>
			<path d="M86.6,181.3c-1.3-0.1-1.4-0.1-1.5,0.2c-0.1,0.4-0.3,1.4-0.7,3.4c-0.4,1.9-0.5,2.9-0.6,3.4c0,0.3,0.1,0.4,1.3,0.7     l-0.1,0.5l-4.6-0.9c-1-0.2-1.6-0.6-2.1-1.1c-0.4-0.5-0.6-1.1-0.5-1.7c0.4-1.8,2-2.2,4.2-1.8c0.3,0.1,0.7,0.2,0.9,0.2l0.5-3     c0.1-0.3-0.1-0.4-1.5-0.8l0.1-0.5l4.5,0.8L86.6,181.3L86.6,181.3z M82.9,184.9c-0.2-0.1-0.4-0.1-0.6-0.1     c-1.3-0.2-2.5-0.2-2.8,1.5c-0.3,1.6,0.7,2,2,2.2c0.6,0.1,0.6,0,0.7-0.2L82.9,184.9z"></path>
			<path d="M79.8,180.1c-1-0.2-1.2,0.1-1.9,1l-3.6,4.7c-0.6,0.8-0.8,1-1,1.4l-0.7-0.2c0.1-0.4,0-1.1,0-1.6l-0.8-6.6     c-0.1-0.9-0.1-1.1-1.2-1.3l0.2-0.5l4.2,1.2l-0.2,0.5c-1.2-0.3-1.4-0.2-1.5,0.1s0.1,1.8,0.1,1.9c0,0.1,0.1,0.1,0.1,0.1     c0.3,0.1,0.9,0.3,2.1,0.7c0.8,0.2,0.8,0.2,1,0c0.5-0.7,0.9-1.3,0.9-1.4c0.1-0.4,0-0.5-1.2-0.9l0.2-0.5l3.3,0.9V180.1L79.8,180.1z      M73.6,181.6c-0.1,0-0.1,0-0.2,0c0,0.1,0,0.2,0,0.3l0.3,3.4l2.1-2.8c0-0.1,0.1-0.1,0.1-0.2c0-0.1,0-0.1-0.1-0.1L73.6,181.6z"></path>
			<path d="M70.3,177.4c-1.2-0.4-1.3-0.4-1.4-0.1c-0.2,0.4-0.6,1.3-1.3,3.1c-0.8,1.8-1.1,2.8-1.3,3.2c-0.1,0.3,0,0.4,1.1,1l-0.2,0.5     l-4.4-1.8c-0.9-0.4-1.3-0.7-1.6-1.2s-0.4-1.1-0.1-1.9c0.7-1.7,2.7-1.3,2.8-1.4c0-0.1,0-0.2,0-0.4l-0.8-3.3     c-0.2-0.8-0.3-1-0.8-1.2l0.2-0.5l1.9,0.8l1,4.7c0,0.2,0.1,0.2,0.6,0.4s0.5,0.2,0.5,0.1c0.9-2.1,1-2.5,1.1-2.8s0.1-0.4-1.1-1     l0.2-0.5l3.9,1.6L70.3,177.4z M65.9,180.5c0.1-0.2,0.1-0.3-0.7-0.6c-1.7-0.7-2.5,0.1-2.8,0.8c-0.4,1,0.1,1.9,1.3,2.5     c0.8,0.3,0.9,0.3,1,0L65.9,180.5L65.9,180.5z"></path>
			<path d="M61.3,173.6c-1.3-0.6-1.3-0.6-1.6-0.3c-0.1,0.2-0.4,0.6-0.7,1.3l-2.7,5.2l1.3,0.7c0.4,0.2,0.7,0,1.9-1.1l0.5,0.4     c-0.3,0.4-0.8,1-1.3,2c-0.2-0.2-0.4-0.3-0.6-0.4c-0.2-0.1-0.4-0.3-0.6-0.4l-3.9-2c-0.5-0.2-0.9-0.4-1.4-0.6     c0.5-1.1,0.8-1.7,0.9-2.2l0.6,0.2c-0.2,1.6-0.2,2,0.2,2.2l1.3,0.7l2.7-5.2c0.3-0.7,0.5-1.1,0.6-1.3c0.1-0.3,0.1-0.4-1.1-1.1     l0.2-0.5l4,2.1L61.3,173.6L61.3,173.6z"></path>
			<path d="M55.5,170.7c-1.2-0.7-1.3-0.7-1.5-0.5c-0.3,0.3-0.9,1.2-2,2.8s-1.7,2.5-1.9,2.9c-0.1,0.3-0.1,0.4,1,1.2l-0.3,0.4     l-2.8-1.9c0-0.1,0.1-0.2,0.1-0.4l1.8-6.8l0,0l-6,4.4l-2.8-1.9l0.3-0.5c1.2,0.7,1.3,0.7,1.5,0.5c0.3-0.3,0.9-1.2,2-2.8     s1.7-2.5,1.9-2.9c0.2-0.3,0.1-0.4-1-1.2l0.3-0.5l3.7,2.5l-0.3,0.4c-1.2-0.7-1.3-0.7-1.4-0.4l-4,5.9l0,0l6.2-4.5     c0.2-0.1,0.4-0.3,0.5-0.4l0.8,0.5c0,0.1-0.1,0.3-0.2,0.5l-2,7.5l0,0l3.4-4.9c0.2-0.3,0.5-0.8,0.6-1c0.1-0.3,0.1-0.4-0.8-1.1     l0.3-0.4l3,2C55.8,170.2,55.5,170.7,55.5,170.7z"></path>
			<path d="M45.6,163.8c-0.9-0.7-1-0.7-1.3-0.5c-0.3,0.3-1,1.1-2.3,2.6s-2,2.3-2.2,2.6s-0.2,0.4,0.7,1.2l-0.4,0.4l-3.6-3.2     c-0.6-0.5-1.1-0.9-1.6-1.2c0.4-0.5,1.3-1.7,1.4-2l0.5,0.3c-0.8,1.5-0.7,1.8,0.6,3l0.9,0.7c0.1,0.1,0.2,0.1,0.3,0l1.9-2.2     c0.1-0.1,0.1-0.2-0.2-0.4l-0.2-0.2c-1-0.9-1.3-0.8-1.9-0.2l-0.4-0.4c0.3-0.3,0.6-0.6,1-1.1c0.3-0.4,0.7-0.8,0.9-1.1l0.4,0.4     c-0.6,0.7-0.6,1,0.2,1.7l0.6,0.6c0.1,0.1,0.2,0.1,0.3,0l2.1-2.4c0.1-0.1,0.1-0.2,0-0.4l-1.7-1.4c-0.8-0.7-1.2-0.6-1.9-0.2     l-0.8,0.5l-0.4-0.5c0.6-0.4,1.5-1.2,1.9-1.6l5.4,4.7L45.6,163.8L45.6,163.8z"></path>
			<path d="M39.5,158.4c-0.9-0.8-1-0.9-1.3-0.7c-0.3,0.3-1.1,1-2.6,2.3c-1.4,1.3-2.2,2-2.5,2.4c-0.2,0.3-0.2,0.4,0.6,1.3l-0.4,0.4     l-1.8-1.9c0.1-0.2,0.1-0.4,0.2-0.7l1.6-6.9l0,0l-1.5,1.3c-1.4,1.3-2.2,2-2.5,2.4c-0.2,0.3-0.2,0.4,0.7,1.4l-0.4,0.4l-2.5-2.6     l0.4-0.4c0.8,0.9,0.9,0.9,1.5,0.5c0.5-0.5,1.1-1,1.6-1.4c1.8-1.7,3.3-3.1,4-3.9l0.6,0.7c-0.4,1.1-0.6,1.9-0.8,3.1l-1.2,5.3l0,0     l1.9-1.7c1.4-1.3,2.2-2,2.5-2.4c0.2-0.3,0.2-0.4-0.8-1.6l0.4-0.4l2.6,2.8L39.5,158.4L39.5,158.4z"></path>
			<path d="M32,150c-0.9-1.1-1-1.1-1.3-0.9c-0.2,0.1-0.6,0.4-1.2,0.8l-4.7,3.5l0.9,1.2c0.3,0.3,0.7,0.3,2.2-0.2l0.3,0.5     c-0.5,0.2-1.1,0.6-2.1,1.2c-0.1-0.2-0.2-0.4-0.4-0.7c-0.1-0.2-0.3-0.4-0.4-0.6l-2.6-3.5c-0.3-0.4-0.7-0.8-1-1.1     c0.9-0.7,1.5-1.2,1.8-1.6l0.4,0.4c-0.9,1.3-1,1.7-0.8,2l0.9,1.2l4.7-3.5c0.6-0.5,0.9-0.7,1.1-0.9c0.2-0.3,0.2-0.3-0.5-1.5     l0.4-0.3l2.7,3.6L32,150L32,150z"></path>
			<path d="M16.1,141.1c-1.1-2.1-0.3-4.6,2.1-5.9c2.5-1.3,5-0.6,6.1,1.5s0.3,4.6-2.2,5.9C19.7,144,17.2,143.2,16.1,141.1      M23.7,137.1c-0.6-1.2-2.3-1.6-4.7-0.3s-3,2.9-2.4,4.1c0.6,1.2,2.3,1.6,4.7,0.3C23.8,139.9,24.4,138.3,23.7,137.1"></path>
			<path d="M21.3,132.6c-0.5-1.1-0.6-1.1-0.9-1c-0.4,0.1-1.4,0.5-3.2,1.2s-2.8,1.1-3.2,1.3c-0.3,0.2-0.3,0.2,0,1.4l-0.5,0.2     l-1.8-4.4c-0.3-0.7-0.6-1.3-0.9-1.8c0.5-0.2,1.9-0.9,2.2-1.1l0.3,0.5c-1.4,1-1.5,1.3-0.8,2.9l0.4,1.1c0.1,0.1,0.2,0.2,0.3,0.1     l2.7-1.1c0.1-0.1,0.2-0.1,0.1-0.5l-0.1-0.4c-0.5-1.3-0.7-1.3-1.6-1l-0.2-0.5c0.4-0.1,0.8-0.3,1.3-0.5s1-0.4,1.3-0.6L17,129     c-0.8,0.4-1,0.7-0.6,1.6l0.3,0.8c0,0.1,0.1,0.2,0.3,0.1l2.9-1.2c0.3-0.1,0.3-0.2-0.1-1.6l0.5-0.2l1.6,3.9L21.3,132.6L21.3,132.6z     "></path>
			<path d="M17.3,122c-0.4-1.3-0.4-1.3-0.8-1.3s-1.4,0.3-3.3,0.7c-1.9,0.5-2.9,0.7-3.3,0.8c-0.3,0.1-0.4,0.2-0.1,1.5l-0.6,0.1     l-1-4.3l0.5-0.1c0.4,1.3,0.4,1.3,0.8,1.3c0.3,0,1-0.2,1.6-0.3l0.8-0.2c0.4-0.1,0.4-0.1,0.3-0.5l-0.8-3.3     c-0.1-0.3-0.1-0.3-0.5-0.3l-0.8,0.2c-0.6,0.2-1.3,0.3-1.6,0.4c-0.4,0.1-0.4,0.2-0.2,1.5l-0.5,0.1l-1-4.3l0.5-0.1     c0.4,1.2,0.4,1.3,0.8,1.3c0.5,0,1.5-0.3,3.4-0.7c1.9-0.5,2.9-0.7,3.3-0.8c0.3-0.1,0.4-0.2,0.1-1.5l0.5-0.1l1,4.3l-0.5,0.1     c-0.4-1.3-0.4-1.3-0.8-1.3c-0.4,0-1.4,0.3-2.8,0.6C12,116,12,116,12,116.3l0.8,3.3c0.1,0.3,0.1,0.4,0.5,0.3     c1.4-0.3,2.5-0.6,2.8-0.7c0.3-0.1,0.4-0.2,0.1-1.5l0.5-0.1l1,4.3C17.8,121.8,17.3,122,17.3,122z"></path>
			<path d="M15,111.8c-0.2-1.2-0.3-1.2-0.6-1.2c-0.4,0-1.4,0.1-3.4,0.3c-2,0.2-3,0.4-3.4,0.5c-0.3,0.1-0.4,0.1-0.3,1.3l-0.6,0.1     L6.1,108c-0.1-0.7-0.2-1.5-0.4-1.9c0.6-0.1,2-0.4,2.4-0.5l0.2,0.5c-1.6,0.6-1.7,0.8-1.5,2.6l0.1,1.2c0,0.2,0.1,0.2,0.3,0.2     l2.9-0.4c0.2,0,0.2-0.1,0.2-0.4V109c-0.2-1.4-0.4-1.5-1.3-1.5L8.9,107c0.4-0.1,0.8-0.1,1.4-0.2c0.5-0.1,1.1-0.1,1.4-0.2l0.1,0.6     c-0.9,0.2-1.1,0.4-1,1.4l0.1,0.9c0,0.2,0.1,0.2,0.3,0.2l3.2-0.4c0.2,0,0.2-0.1,0.2-0.3l-0.3-2.2c-0.1-1-0.4-1.2-1.3-1.4l-0.9-0.2     l0.1-0.6c0.7,0.1,1.9,0.1,2.5,0l0.8,7.1L15,111.8L15,111.8z"></path>
			<path d="M14,104c-0.1-1-0.4-1.2-1.5-1.6L7,100.3c-1-0.3-1.2-0.4-1.7-0.5v-0.7c0.4-0.1,1.1-0.3,1.5-0.5l6.1-2.6     c0.8-0.3,1-0.4,0.9-1.5h0.5l0.1,4.4h-0.5c-0.1-1.3-0.2-1.4-0.5-1.4s-1.7,0.6-1.8,0.7c-0.1,0-0.1,0.1-0.1,0.2c0,0.3,0,1,0,2.3     c0,0.8,0.1,0.8,0.4,0.9c0.8,0.3,1.5,0.5,1.6,0.5c0.4,0,0.5-0.1,0.6-1.4h0.5l0.1,3.4C14.5,104,14,104,14,104z M10.8,98.6     c0-0.1,0-0.2-0.1-0.2s-0.2,0.1-0.3,0.1l-3.2,1.3l3.3,1.2c0.1,0,0.2,0.1,0.2,0.1l0.1-0.1C10.8,100.9,10.8,98.6,10.8,98.6z"></path>
			<path d="M13.9,94.1c0-1.2,0-1.3-0.4-1.3c-0.4-0.1-1.4-0.2-3.4-0.4c-2-0.2-3-0.3-3.4-0.2c-0.3,0-0.4,0.1-0.6,1.3H5.5l0.4-4.1h0.5     c0,1.2,0,1.3,0.4,1.4c0.3,0.1,1,0.1,1.6,0.2l5.1,0.4c0.4,0,0.5-0.1,0.6-0.5l0.1-1.5c0.1-1.2-0.2-1.5-2-2.3l0.2-0.6     c0.4,0.2,1.9,0.5,2.6,0.6l-0.6,7H13.9L13.9,94.1z"></path>
			<path d="M14.7,85.7c0.1-1.4,0.1-1.4-0.2-1.5c-0.2-0.1-0.7-0.2-1.4-0.3l-5.8-1l-0.2,1.4C7,84.8,7.3,85,8.7,85.8l-0.2,0.6     C8,86.2,7.3,86,6.2,85.8c0.1-0.2,0.1-0.5,0.2-0.7s0.1-0.5,0.2-0.7l0.7-4.3c0.1-0.5,0.1-1,0.1-1.5c1.1,0.2,1.9,0.2,2.4,0.2v0.6     c-1.6,0.3-2,0.4-2,0.8l-0.2,1.5l5.8,1c0.7,0.1,1.2,0.2,1.4,0.2c0.3,0,0.4,0,0.7-1.4l0.5,0.1l-0.8,4.5     C15.3,85.8,14.7,85.7,14.7,85.7z"></path>
			<path d="M15.7,79.7c0.3-1.3,0.3-1.4-0.1-1.5c-0.4-0.2-1.4-0.4-3.3-1c-1.9-0.5-2.9-0.8-3.3-0.9c-0.4-0.1-0.4,0-0.9,1.2l-0.5-0.2     l1.2-4.2l0.5,0.1c-0.3,1.3-0.2,1.4,0.1,1.5c0.2,0.1,1,0.3,1.6,0.5l0.8,0.2c0.3,0.1,0.4,0.1,0.5-0.2l0.9-3.2     c0.1-0.3,0.1-0.4-0.3-0.5l-0.8-0.2c-0.6-0.2-1.3-0.3-1.6-0.4s-0.4,0-0.9,1.2L9.2,72l1.2-4.2l0.5,0.1c-0.3,1.3-0.2,1.4,0.1,1.5     c0.4,0.2,1.4,0.4,3.3,1c1.9,0.5,2.9,0.8,3.3,0.9c0.3,0.1,0.4,0,0.8-1.2l0.5,0.1l-1.2,4.3l-0.5-0.2c0.3-1.3,0.3-1.4-0.1-1.5     c-0.3-0.1-1.3-0.4-2.8-0.9c-0.4-0.1-0.4-0.1-0.5,0.2L13,75.4c-0.1,0.3-0.1,0.4,0.3,0.5c1.4,0.4,2.4,0.7,2.8,0.7     c0.3,0.1,0.4,0,0.9-1.2l0.5,0.1l-1.2,4.2C16.2,79.8,15.7,79.7,15.7,79.7z"></path>
			<path d="M24.1,57.5c0.1,0.8,0.1,1.5-0.2,2.1c-0.3,0.6-0.7,0.9-1.7,1.2c0.2,0.9,0.3,1.8-0.2,2.7c-0.7,1.6-2.3,1.9-3.5,1.3     c-1.1-0.5-1.7-1.5-1.7-3.4c-1.4,0.1-1.8,0.1-2.2-0.1c-0.8-0.4-1.2-1.2-0.6-2.5c0.5-1.1,1.3-1.6,2.3-1.1c0.9,0.5,1.1,1.4,1.1,2.3     c1.4-0.1,2.7-0.2,4-0.4C21,59,20.4,58.2,20,58c-0.3-0.2-0.6-0.1-0.9,0.4l-0.5-0.2l1.2-2.7l0.5,0.2c-0.3,0.6-0.3,1.2,0.3,1.9     c0.3,0.4,0.7,1.1,1.1,1.9c1.1-0.2,1.3-0.4,1.6-0.9c0.2-0.4,0.2-0.8,0.1-1.5C23.5,57.2,24.1,57.5,24.1,57.5z M16.8,60.2     c0.1-0.7-0.4-1.2-0.9-1.4c-0.4-0.2-1.1-0.2-1.4,0.3c-0.2,0.4-0.1,0.9,0.5,1.1C15.4,60.4,16,60.5,16.8,60.2 M21.5,62.5     c0.2-0.4,0.2-0.9,0.1-1.6c-1.1,0.3-3.3,0.5-4.3,0.5c0,0.9,0.3,1.5,1.1,1.9C19.3,63.8,21,63.7,21.5,62.5"></path>
			<path d="M26.2,53.7c0.7-1.1,0.7-1.2,0.4-1.4c-0.3-0.3-1.2-0.9-2.8-2c-1.6-1.1-2.4-1.7-2.8-1.9c-0.3-0.2-0.4-0.1-1.2,0.9L19.4,49     l2.5-3.6l0.4,0.3c-0.7,1.1-0.7,1.2-0.4,1.4c0.2,0.2,0.8,0.6,1.3,1l0.7,0.5c0.3,0.2,0.4,0.2,0.6-0.1l1.9-2.7     c0.2-0.3,0.2-0.3-0.2-0.6l-0.7-0.5c-0.5-0.4-1.1-0.8-1.4-0.9c-0.3-0.1-0.4-0.1-1.2,0.9l-0.4-0.3l2.5-3.6l0.5,0.3     c-0.7,1.1-0.7,1.2-0.4,1.4c0.3,0.3,1.2,0.9,2.8,2c1.6,1.1,2.4,1.7,2.8,1.9c0.3,0.2,0.4,0.1,1.2-0.9l0.5,0.3l-2.5,3.6l-0.5-0.3     c0.7-1.1,0.7-1.2,0.4-1.4c-0.3-0.2-1.1-0.8-2.4-1.7c-0.3-0.2-0.4-0.2-0.5,0.1L25,48.8c-0.2,0.3-0.2,0.3,0.1,0.5     c1.2,0.9,2.1,1.4,2.4,1.6c0.3,0.2,0.4,0.1,1.2-0.9l0.4,0.3L26.7,54L26.2,53.7z"></path>
			<path d="M26.1,39.5l3-3.3l0.4,0.4c-0.8,1-0.8,1.1-0.6,1.4c0.3,0.3,1,1,3.4,3.2c0.8,0.7,2.1,1.5,3.5,0.1c1.5-1.7,0.9-2.6-1.1-4.4     c-1.6-1.4-2.3-2.1-2.7-2.3c-0.3-0.2-0.4-0.2-1.3,0.8L30.3,35l2.5-2.7l0.4,0.3c-0.8,1-0.8,1.1-0.6,1.4c0.3,0.3,1.1,1,3.1,2.9     c1.5,1.3,2.7,2.8,0.5,5.2c-1.3,1.5-3.1,1.8-4.9,0.2c-2.4-2.1-3.1-2.8-3.5-3.1c-0.3-0.2-0.4-0.2-1.3,0.7     C26.5,39.9,26.1,39.5,26.1,39.5z"></path>
			<path d="M38.7,37.9c1-1,1-1,0.8-1.3c-0.3-0.4-0.9-1.2-2.2-2.6c-1.3-1.5-2-2.3-2.3-2.6c-0.3-0.2-0.3-0.2-1.4,0.6l-0.4-0.4l2.6-2.3     c0.1,0.1,0.2,0.2,0.3,0.2l6.1,3.5l0,0l-2.7-7l2.6-2.2l0.4,0.4c-1,1-1,1.1-0.8,1.3c0.2,0.4,0.9,1.1,2.2,2.6s2,2.3,2.3,2.6     c0.2,0.2,0.3,0.2,1.4-0.6l0.3,0.4l-3.4,2.9L44.1,33c1-0.9,1-1,0.8-1.3l-4.6-5.4l0,0l2.8,7.2c0.1,0.2,0.1,0.4,0.3,0.6l-0.7,0.6     c-0.1-0.1-0.3-0.2-0.5-0.3l-6.7-3.9l0,0l3.9,4.5c0.3,0.3,0.7,0.7,0.8,0.8c0.3,0.2,0.3,0.2,1.3-0.5l0.4,0.4l-2.8,2.4     C39.1,38.3,38.7,37.9,38.7,37.9z"></path>
			<path d="M48.2,29.8c0.8-0.6,0.8-1,0.5-2.1l-1.2-5.8c-0.2-1-0.2-1.2-0.4-1.7l0.5-0.3c0.3,0.3,0.9,0.7,1.2,1l5.5,3.8     c0.7,0.5,0.9,0.6,1.8,0l0.3,0.5l-3.6,2.4L52.6,27c1.1-0.7,1.1-0.9,0.9-1.1c-0.1-0.2-1.4-1.1-1.5-1.2c-0.1,0-0.1,0-0.2,0     c-0.3,0.2-0.8,0.5-1.9,1.2c-0.7,0.4-0.7,0.5-0.6,0.8c0.2,0.8,0.4,1.5,0.5,1.6c0.2,0.3,0.4,0.3,1.4-0.3l0.3,0.5l-2.9,1.8     C48.5,30.3,48.2,29.8,48.2,29.8z M51.1,24.3c0.1-0.1,0.1-0.1,0.1-0.2c0,0-0.2-0.1-0.2-0.2l-2.8-2l0.7,3.4c0,0.1,0,0.2,0.1,0.2     c0,0,0.1,0,0.2,0C49.2,25.5,51.1,24.3,51.1,24.3z"></path>
			<path d="M56.6,24.4c1.1-0.6,1.1-0.7,1-1c-0.1-0.4-0.6-1.3-1.5-3.1c-0.9-1.8-1.3-2.7-1.6-3c-0.2-0.3-0.3-0.3-1.4,0.2L52.9,17     l2.4-1.2c0.1,0.1,0.3,0.2,0.6,0.4l6.2,3.5l0,0l-0.9-1.8c-0.9-1.8-1.3-2.7-1.6-3c-0.2-0.3-0.3-0.3-1.5,0.2l-0.2-0.5l3.2-1.6     l0.2,0.5c-1.1,0.5-1.1,0.7-0.9,1.3c0.3,0.6,0.6,1.3,0.9,2c1.1,2.2,2,4.1,2.6,5L63.1,22c-0.9-0.7-1.7-1.1-2.7-1.7l-4.8-2.6l0,0     l1.2,2.3c0.9,1.8,1.3,2.7,1.6,3c0.2,0.3,0.3,0.3,1.7-0.3l0.2,0.5l-3.4,1.7C56.8,24.9,56.6,24.4,56.6,24.4z"></path>
			<path d="M70,15.9c0.8,1.3,1.8,2.1,3.1,1.7c1.3-0.4,1.8-1.4,1.5-2.2c-0.2-0.8-0.9-0.9-1.9-0.9h-1c-2.4,0-2.9-0.7-3.2-1.7     c-0.5-1.6,0.5-3,2.4-3.6c0.9-0.3,1.8-0.4,2.5-0.4c0,0.1,0.1,0.4,0.2,0.5c0.2,0.6,0.4,1.2,0.6,1.7l-0.6,0.2     c-0.7-1.4-1.6-1.7-2.7-1.4c-1,0.3-1.6,1.2-1.4,2c0.2,0.5,0.6,0.8,1.6,0.9l2.2,0.1c1.4,0.1,2.2,0.6,2.5,1.7     c0.5,1.6-0.5,3.1-2.5,3.7c-0.9,0.3-1.9,0.2-2.8,0.5c-0.2-0.6-0.6-1.7-1-2.5C69.4,16.2,70,15.9,70,15.9z"></path>
			<path d="M77,16.2c1.1-0.3,1.2-0.4,1.2-0.7c0-0.5-0.3-1.4-0.7-3.4c-0.4-1.9-0.6-2.9-0.8-3.3c-0.1-0.3-0.2-0.4-1.3-0.2l-0.1-0.5     l4.7-1c0.7-0.1,1.4-0.4,1.9-0.6c0.1,0.6,0.6,2,0.7,2.3L82.1,9c-0.7-1.5-1-1.6-2.7-1.3L78.3,8c-0.1,0-0.2,0.1-0.2,0.3l0.6,2.8     c0,0.2,0.1,0.2,0.4,0.2l0.4-0.1c1.4-0.3,1.4-0.5,1.3-1.4l0.5-0.1c0.1,0.4,0.1,0.8,0.3,1.4c0.1,0.5,0.3,1.1,0.3,1.4l-0.5,0.1     c-0.3-0.9-0.5-1.1-1.5-0.9L79,11.9c-0.2,0-0.2,0.1-0.2,0.3l0.7,3.2c0,0.2,0.1,0.2,0.3,0.2l2.1-0.4c1-0.2,1.2-0.5,1.3-1.4l0.1-0.9     h0.6c0,0.7,0.1,1.9,0.2,2.5l-7,1.5C77.1,16.8,77,16.2,77,16.2z"></path>
			<path d="M85.1,14.5c1.3-0.2,1.3-0.3,1.3-0.6c0-0.4-0.1-1.5-0.3-3.4c-0.2-2-0.3-3-0.4-3.4c-0.1-0.3-0.1-0.4-1.5-0.3l-0.1-0.5     L89,5.8c1-0.1,1.6,0,2.1,0.3s0.9,0.8,1,1.6c0.2,1.9-1.9,2.4-1.9,2.5s0.1,0.1,0.2,0.3l2.4,2.5c0.6,0.6,0.7,0.7,1.4,0.7v0.5     L92,14.4l-3-3.7c-0.1-0.1-0.2-0.1-0.8-0.1c-0.5,0.1-0.5,0.1-0.5,0.2c0.2,2.3,0.3,2.6,0.3,3c0.1,0.3,0.2,0.4,1.5,0.3v0.5L85.1,15     C85.2,15.1,85.1,14.5,85.1,14.5z M87.6,9.7c0,0.2,0.1,0.3,0.9,0.2c2-0.2,2.2-1.3,2.2-2c-0.1-1.1-1-1.7-2.4-1.6     c-0.9,0.1-1,0.1-1,0.5C87.3,6.8,87.6,9.7,87.6,9.7z"></path>
			<path d="M92.7,5.4L97,5.3v0.5h-0.6c-0.6,0-0.7,0.2-0.7,0.4c0,0.3,0.7,1.9,1.3,3.6l1,2.4l1-2.6c0.5-1.5,1.2-3.2,1.2-3.5     s-0.2-0.4-1.3-0.3V5.3l3.4-0.1v0.5h-0.4c-0.6,0-0.8,0.3-1.4,1.8c-2,5.1-2.2,5.7-2.4,6.8h-0.8c-0.1-0.9-2.4-6-3-7.4     c-0.5-1.1-0.6-1.1-1.6-1.1C92.7,5.9,92.7,5.4,92.7,5.4z"></path>
			<path d="M102.6,13.8c1.4,0,1.5,0,1.5-0.4c0.1-0.4,0.2-1.4,0.3-3.4c0.2-2,0.3-3,0.2-3.4c0-0.3-0.1-0.4-1.5-0.6l0.1-0.5l4.6,0.4     l-0.1,0.5c-1.4,0-1.5,0-1.5,0.3c-0.1,0.4-0.2,1.4-0.3,3.4c-0.2,2-0.2,3-0.2,3.4s0.1,0.4,1.4,0.6v0.5l-4.6-0.4     C102.5,14.3,102.6,13.8,102.6,13.8z"></path>
			<path d="M116.2,14c-1.3,1.3-2.5,1.8-4.2,1.6c-2-0.3-4-2.1-3.4-5.3c0.4-2.3,2.2-4.4,5.3-3.9c0.8,0.1,1.9,0.5,2.6,0.8     c-0.1,0.7-0.1,1.9-0.1,2.5h-0.6c-0.2-1.6-0.8-2.5-2.3-2.7c-1.6-0.3-2.9,1.1-3.3,3.5c-0.4,2.6,0.7,4.1,2.2,4.3     c1.3,0.2,2.4-0.3,3.3-1.3C115.7,13.6,116.2,14,116.2,14z"></path>
			<path d="M116.3,15.5c1.2,0.2,1.2,0.2,1.4-0.1c0.1-0.4,0.4-1.4,0.9-3.3s0.8-2.9,0.9-3.3c0-0.3,0-0.4-1.1-0.8l0.1-0.5l4.6,1.3     c0.7,0.2,1.4,0.3,2,0.4c-0.1,0.6-0.4,2-0.4,2.4l-0.5-0.1c0.1-1.7-0.1-1.9-1.8-2.4l-1.1-0.3c-0.2,0-0.3,0-0.3,0.2l-0.8,2.8     c0,0.2,0,0.2,0.3,0.3l0.4,0.1c1.3,0.4,1.5,0.2,1.8-0.7l0.6,0.2c-0.1,0.4-0.3,0.8-0.4,1.4c-0.1,0.5-0.3,1-0.3,1.4l-0.6-0.1     c0.2-0.9,0.1-1.2-0.9-1.4l-0.9-0.3c-0.1,0-0.2,0-0.3,0.2l-0.8,3.1c0,0.2,0,0.2,0.2,0.3l2.1,0.6c1,0.3,1.3,0.1,1.8-0.7l0.5-0.8     l0.5,0.3c-0.3,0.6-0.8,1.7-1,2.3l-6.9-1.9L116.3,15.5z"></path>
			<path d="M126,15.8c-0.2,1.6,0.1,2.8,1.4,3.3c1.3,0.5,2.3,0,2.5-0.8c0.3-0.8-0.2-1.3-0.9-1.9l-0.8-0.7c-1.9-1.5-1.8-2.3-1.5-3.3     c0.6-1.5,2.3-2.1,4.1-1.4c0.9,0.3,1.7,0.8,2.2,1.1c0,0.2-0.1,0.4-0.2,0.5c-0.2,0.6-0.4,1.2-0.6,1.8l-0.6-0.2     c0.4-1.6-0.2-2.3-1.3-2.7c-1-0.4-2.1-0.1-2.4,0.7c-0.2,0.5-0.1,1,0.7,1.6l1.7,1.4c1.1,0.9,1.4,1.8,0.9,2.9     c-0.6,1.6-2.3,2.1-4.2,1.4c-0.9-0.3-1.6-1-2.5-1.4c0.2-0.6,0.6-1.7,0.7-2.6L126,15.8z"></path>
			<path d="M136.3,17.6c0.5,0.2,0.6,0.7,0.4,1.2c-0.2,0.4-0.7,0.6-1.2,0.4c-0.4-0.2-0.6-0.7-0.4-1.2     C135.3,17.5,135.8,17.4,136.3,17.6"></path>
			<path d="M140.4,15.4l3.8,2.2l-0.3,0.5c-1.2-0.6-1.2-0.6-1.5-0.3c-0.3,0.4-0.8,1.2-2.4,4c-0.5,0.9-1,2.4,0.7,3.4     c1.9,1.1,2.7,0.3,4.1-2c1.1-1.8,1.6-2.7,1.8-3.1c0.1-0.3,0.1-0.4-1.1-1.2l0.3-0.5l3.2,1.9l-0.3,0.5c-1.2-0.6-1.2-0.6-1.5-0.3     c-0.3,0.4-0.8,1.2-2.2,3.6c-1,1.7-2.2,3.2-5,1.6c-1.7-1-2.4-2.7-1.2-4.7c1.6-2.7,2.1-3.6,2.3-4c0.2-0.3,0.1-0.4-1-1.1L140.4,15.4     L140.4,15.4z"></path>
			<path d="M147.3,26.5c-0.6,1.5-0.6,2.7,0.4,3.5c1.2,0.8,2.2,0.6,2.7,0c0.5-0.7,0.1-1.3-0.4-2.1l-0.6-0.9c-1.4-2-1.1-2.7-0.5-3.6     c1-1.3,2.7-1.4,4.3-0.2c0.8,0.6,1.4,1.2,1.8,1.7c-0.1,0.1-0.2,0.3-0.3,0.4c-0.4,0.5-0.7,1-1,1.6l-0.5-0.4c0.8-1.4,0.5-2.3-0.5-3     c-0.9-0.7-2-0.6-2.5,0c-0.3,0.5-0.3,1,0.2,1.8l1.3,1.9c0.8,1.2,0.8,2.1,0.1,3c-1,1.4-2.8,1.4-4.4,0.2c-0.8-0.6-1.3-1.4-2-2     c0.4-0.6,1-1.5,1.4-2.3L147.3,26.5L147.3,26.5z"></path>
			<path d="M151.1,32.3c0.8,0.6,1.1,0.5,2.2,0l5.3-2.6c0.9-0.5,1.1-0.6,1.6-0.8l0.5,0.5c-0.2,0.3-0.5,1-0.7,1.4l-2.3,6.3     c-0.3,0.8-0.3,1,0.5,1.7l-0.4,0.4l-3.2-2.9l0.4-0.4c1,0.8,1.2,0.8,1.4,0.6s0.7-1.6,0.8-1.8c0-0.1,0-0.1-0.1-0.2     c-0.2-0.2-0.7-0.7-1.6-1.6c-0.6-0.5-0.7-0.5-0.9-0.4c-0.8,0.4-1.4,0.7-1.4,0.8c-0.3,0.3-0.2,0.4,0.6,1.3l-0.4,0.4l-2.5-2.3     L151.1,32.3L151.1,32.3z M157.3,33.7c0.1,0.1,0.1,0.1,0.2,0.1c0.1-0.1,0.1-0.2,0.1-0.3l1.2-3.2l-3.1,1.6c-0.1,0-0.2,0.1-0.2,0.1     s0,0.1,0.1,0.2L157.3,33.7L157.3,33.7z"></path>
		</g>
	</g>
</g>
</svg>
