<?xml version="1.0" encoding="UTF-8"?>
<!-- Generator: Adobe Illustrator 27.2.0, SVG Export Plug-In . SVG Version: 6.00 Build 0)  -->
<svg xmlns="http://www.w3.org/2000/svg" xmlns:xlink="http://www.w3.org/1999/xlink" version="1.1" id="Cognizant_Logo" x="0px" y="0px" viewBox="0 0 708 180" style="enable-background:new 0 0 708 180;" xml:space="preserve">
<path d="M406.4,107.1l42.1-41H407V46.8h70.9v19.6l-42.1,40.9h43v19.3h-72.3L406.4,107.1z M376.5,20.6h21.9v19.8h-21.9V20.6z   M376.2,47h21.9v79.7h-21.9V47z M110.9,86.7c0.1-22.8,18.7-41.2,41.6-41.2c22.9,0.1,41.4,18.6,41.3,41.4c0,22.8-18.6,41.2-41.5,41.2  c-11.1,0-21.6-4.3-29.4-12.1C115.2,108.3,110.8,97.7,110.9,86.7z M172.6,86.7c0-11.3-8.9-20.8-20.2-20.8c-11.3,0-20,9.4-20,20.8  s8.7,20.8,20,20.8C163.5,107.5,172.6,98,172.6,86.7L172.6,86.7z M292.8,46.8h21.8v8.9c5.1-6.5,12.9-10.5,22.1-10.5  c18.9,0,30.3,12.1,30.3,32.7v48.7h-22.2V80.8c0-10.7-5-16.9-14.7-16.9c-8.3,0-15.2,5.8-15.2,19.1v43.5h-21.9L292.8,46.8z M480,86.7  c0-28.2,20.8-41.5,38.9-41.5c10.4,0,18.6,3.8,23.9,9.4v-7.8h21.9v79.7h-21.9v-8.8c-5.3,6.2-13.8,10.5-24.2,10.5  C501.6,128.2,480,114.8,480,86.7z M543.4,86.5c0-11.8-8.7-21.4-20.5-21.4c-12.2,0-21.4,9.1-21.4,21.4s9.3,21.5,21.4,21.5  C534.8,108.1,543.4,98.4,543.4,86.5L543.4,86.5z M573.5,46.8h21.8v8.9c5.1-6.5,13-10.5,22.1-10.5c18.8,0,30.3,12.1,30.3,32.7v48.7  h-22.3V80.8c0-10.7-5-16.9-14.7-16.9c-8.3,0-15.2,5.8-15.2,19.1v43.5h-21.9V46.8z M406.4,126.6v-19.5l42.1-41H407V46.8h70.9v19.6  l-42.1,40.9 M87.5,86l-0.3,0.6c-6,12.7-17.2,20-30.5,20c-19.4,0-34.5-15.2-34.5-34.8c0-20,15-35,35-35c12.9,0,22.7,6,29.2,18  l0.4,0.6l19.4-12.3l-0.4-0.5C95.8,25.3,77.5,15,57.2,15C24.6,15,0,39.5,0,71.9c0,33,24.1,56.9,57.2,56.9c21.3,0,40.2-11.8,50.4-31.6  l0.3-0.6L87.5,86z M199.4,86.7c0-28.2,20.8-41.5,38.9-41.5c10.4,0,18.6,4.3,23.9,10.2v-8.6h21.9v77.5c0,22.5-14.2,40.7-41.3,40.7  c-20.4,0-35.2-10.5-41.7-23l19.4-10.9c4.2,8.3,11.5,13.5,22.2,13.5c11.9,0,19.4-9.3,19.4-19.6v-7.3c-5.3,6.2-13.8,10.5-24.2,10.5  C221,128.2,199.4,114.8,199.4,86.7z M262.7,86.5c0-11.8-8.7-21.4-20.5-21.4c-12.1,0-21.4,9.1-21.4,21.4s9.3,21.5,21.4,21.5  C254.1,108.1,262.7,98.4,262.7,86.5z M701.7,66.4V46.8h-15V20.5h-21.9v26.3h-13.6v19.6h13.6V92c0,26,8.3,34.6,33.8,34.6h3.2v-20.4  c-13.5,0-15-1.9-15-14.3V66.4H701.7z M706.4,30c-1.1,1.1-2.5,1.7-4,1.7c-1.5,0-2.9-0.6-4-1.7c-1.1-1.1-1.7-2.5-1.7-4  c0-2.6,1.7-4.7,4.2-5.4c2.5-0.7,5,0.4,6.3,2.6C708.5,25.4,708.1,28.3,706.4,30L706.4,30z M698.9,22.7c-0.9,0.9-1.4,2.1-1.4,3.4  s0.4,2.5,1.4,3.5c0.9,0.9,2.1,1.4,3.5,1.4c1.3,0,2.5-0.5,3.5-1.4c0.9-0.9,1.4-2.1,1.4-3.5c0-1.9-1.2-3.7-2.9-4.4  C702.4,20.8,700.4,21.3,698.9,22.7L698.9,22.7z M702.3,23c0.5,0,1.2,0.1,1.7,0.2c0.6,0.3,1,0.9,1,1.6c0,0.4-0.2,1-0.6,1.2  c-0.3,0.2-0.5,0.3-0.9,0.3c0.4,0,0.8,0.3,1.1,0.6c0.2,0.3,0.4,0.6,0.4,1v0.4c0,0.2,0,0.3,0,0.4c0,0.1,0,0.2,0.1,0.4v0.1h-1  c0,0,0,0,0-0.1V29v-0.2v-0.5c0.1-0.5-0.2-1.1-0.6-1.4c-0.4-0.2-0.8-0.3-1.2-0.2h-0.9v2.4h-1.1V23H702.3L702.3,23z M703.5,23.9  c-0.4-0.2-0.9-0.3-1.3-0.3h-0.9v2.2h1c0.4,0,0.7,0,1.1-0.2c0.4-0.2,0.6-0.4,0.6-0.9C703.9,24.6,703.7,24.2,703.5,23.9z"></path>
</svg>
