<?xml version="1.0" encoding="UTF-8"?>
<!-- Generator: Adobe Illustrator 27.2.0, SVG Export Plug-In . SVG Version: 6.00 Build 0)  -->
<svg xmlns="http://www.w3.org/2000/svg" xmlns:xlink="http://www.w3.org/1999/xlink" version="1.1" id="Layer_1" x="0px" y="0px" viewBox="0 0 2502.1 2502.1" style="enable-background:new 0 0 2502.1 2502.1;" xml:space="preserve">
<g id="a">
</g>
<path d="M253.5,1485.9l8.3,24.9l-68.6,20.8c-10.4,4.2-18.7,6.2-20.8,6.2c-4.2,2.1-8.3,6.2-10.4,12.5c-2.1,4.2-2.1,10.4,0,18.7  s6.2,12.5,10.4,14.5s8.3,4.2,12.5,4.2s12.5-2.1,22.9-6.2l70.7-20.8l8.3,24.9l-66.5,20.8c-14.5,4.2-27,6.2-33.3,8.3s-12.5,0-18.7-2.1  s-10.4-6.2-14.5-12.5c-4.2-6.2-8.3-12.5-10.4-22.9c-4.2-12.5-4.2-22.9-4.2-29.1s4.2-12.5,6.2-18.7s8.3-8.3,12.5-12.5  c6.2-4.2,16.6-8.3,31.2-12.5L253.5,1485.9L253.5,1485.9L253.5,1485.9z M170.4,1668.7l122.6-54l10.4,24.9l-60.3,85.2l81-35.3  l10.4,22.9l-120.5,54l-10.4-24.9l58.2-85.2l-79,35.3L170.4,1668.7L170.4,1668.7z M234.8,1805.9l116.4-66.5l12.5,22.9l-114.3,66.5  L234.8,1805.9L234.8,1805.9z M286.8,1891.1l91.4-62.3l-22.9-33.3L374,1783l60.3,87.3l-18.7,12.5l-20.8-31.2l-91.4,62.3L286.8,1891.1  z M345,1974.2l101.8-87.3l64.4,74.8l-16.6,12.5l-47.8-54l-22.9,18.7l43.6,49.9l-16.6,14.5l-43.6-49.9l-27,24.9l49.9,56.1l-16.6,14.5  L345,1974.2L345,1974.2L345,1974.2z M529.9,1978.4l37.4,33.3c8.3,8.3,14.5,14.5,16.6,18.7c4.2,6.2,6.2,14.5,6.2,22.9  c0,8.3-2.1,16.6-4.2,24.9c-4.2,8.3-10.4,16.6-18.7,27c-8.3,8.3-14.5,14.5-22.9,18.7c-8.3,4.2-18.7,8.3-27,8.3  c-6.2,0-14.5-2.1-20.8-4.2s-12.5-6.2-20.8-14.5l-37.4-33.3L529.9,1978.4L529.9,1978.4L529.9,1978.4z M534.1,2013.7l-58.2,66.5  l14.5,12.5c6.2,4.2,10.4,8.3,12.5,10.4c4.2,2.1,8.3,4.2,12.5,2.1c4.2,0,8.3-2.1,14.5-4.2c6.2-4.2,12.5-8.3,18.7-16.6  s12.5-14.5,14.5-18.7c2.1-6.2,4.2-10.4,2.1-14.5s-2.1-8.3-4.2-12.5s-8.3-8.3-16.6-16.6L534.1,2013.7L534.1,2013.7L534.1,2013.7z   M629.7,2175.8l22.9,10.4c-4.2,8.3-4.2,16.6-2.1,20.8s6.2,10.4,14.5,14.5s14.5,6.2,18.7,6.2s10.4-4.2,12.5-8.3  c2.1-2.1,2.1-6.2,2.1-8.3s-2.1-6.2-6.2-10.4c-2.1-2.1-8.3-8.3-14.5-16.6c-10.4-10.4-16.6-18.7-18.7-27c-4.2-10.4-2.1-20.8,4.2-29.1  c4.2-6.2,8.3-10.4,14.5-12.5s12.5-4.2,20.8-2.1s16.6,4.2,24.9,10.4c14.5,8.3,22.9,18.7,27,29.1s2.1,20.8-4.2,31.2l-22.9-12.5  c2.1-6.2,2.1-12.5,2.1-16.6s-6.2-8.3-12.5-12.5s-12.5-6.2-18.7-6.2c-4.2,0-6.2,2.1-8.3,4.2c-2.1,2.1-2.1,6.2,0,8.3  c2.1,4.2,6.2,10.4,16.6,20.8s16.6,16.6,20.8,22.9c4.2,6.2,6.2,12.5,6.2,18.7s-2.1,14.5-6.2,20.8s-10.4,12.5-16.6,14.5  c-6.2,4.2-14.5,4.2-22.9,4.2c-8.3-2.1-16.6-4.2-27-10.4c-14.5-8.3-22.9-18.7-27-31.2S623.4,2190.4,629.7,2175.8L629.7,2175.8  L629.7,2175.8z M762.7,2300.5l45.7-101.8l-35.3-16.6l8.3-20.8l97.7,43.6l-8.3,20.8l-35.3-16.6l-45.7,101.8L762.7,2300.5  L762.7,2300.5L762.7,2300.5z M958,2371.2l-27-8.3l-2.1-33.3l-52-16.6l-20.8,24.9l-27-8.3l91.4-112.2l27,8.3L958,2371.2L958,2371.2z   M926.8,2306.7l-2.1-52l-33.3,41.6L926.8,2306.7L926.8,2306.7z M1003.7,2381.5l22.9-108.1l-39.5-8.3l4.2-22.9l103.9,20.8l-4.2,22.9  l-39.5-8.3l-22.9,108.1L1003.7,2381.5L1003.7,2381.5L1003.7,2381.5z M1103.5,2398.2l10.4-133l99.8,8.3l-2.1,22.9l-72.7-6.2  l-2.1,29.1l66.5,6.2l-2.1,22.9l-66.5-6.2l-2.1,35.3l74.8,6.2l-2.1,22.9L1103.5,2398.2L1103.5,2398.2z M1236.5,2364.9l27-4.2  c2.1,8.3,6.2,14.5,10.4,18.7c4.2,4.2,12.5,6.2,20.8,6.2s14.5-2.1,18.7-6.2s6.2-8.3,6.2-12.5s-2.1-6.2-2.1-8.3  c-2.1-2.1-6.2-4.2-10.4-6.2c-4.2,0-10.4-2.1-22.9-4.2c-14.5-2.1-24.9-6.2-31.2-12.5c-8.3-6.2-12.5-16.6-12.5-27  c0-6.2,2.1-12.5,4.2-18.7s8.3-10.4,16.6-14.5c6.2-4.2,16.6-6.2,27-6.2c16.6,0,29.1,2.1,37.4,10.4c8.3,6.2,14.5,16.6,14.5,29.1  l-27,2.1c-2.1-6.2-4.2-12.5-8.3-14.5s-10.4-4.2-16.6-4.2c-8.3,0-14.5,2.1-18.7,6.2c-2.1,2.1-4.2,4.2-4.2,8.3s2.1,6.2,4.2,8.3  c4.2,2.1,12.5,6.2,24.9,8.3c12.5,2.1,22.9,6.2,29.1,8.3s12.5,8.3,14.5,12.5c4.2,6.2,6.2,12.5,6.2,20.8s-2.1,14.5-6.2,20.8  c-4.2,6.2-10.4,12.5-16.6,16.6c-8.3,4.2-16.6,6.2-29.1,6.2c-16.6,0-29.1-2.1-39.5-10.4C1244.8,2391.9,1238.6,2379.5,1236.5,2364.9  L1236.5,2364.9L1236.5,2364.9z M1433.9,2327.5c-2.1-12.5-4.2-24.9-2.1-35.3c2.1-8.3,4.2-14.5,8.3-20.8c4.2-6.2,8.3-12.5,14.5-16.6  c8.3-6.2,16.6-8.3,27-12.5c18.7-4.2,35.3-2.1,49.9,6.2s22.9,24.9,29.1,45.7c4.2,20.8,2.1,39.5-6.2,54s-22.9,24.9-41.6,29.1  c-18.7,4.2-35.3,2.1-49.9-6.2S1438.1,2348.3,1433.9,2327.5L1433.9,2327.5z M1460.9,2321.3c4.2,14.5,10.4,24.9,18.7,31.2  s18.7,8.3,29.1,6.2s18.7-8.3,22.9-16.6s6.2-20.8,2.1-37.4c-4.2-14.5-8.3-24.9-16.6-31.2s-18.7-8.3-29.1-4.2  c-10.4,2.1-18.7,8.3-22.9,16.6C1458.9,2294.3,1456.8,2304.7,1460.9,2321.3z M1612.6,2350.4l-45.7-124.7l85.2-31.2l8.3,20.8  l-60.3,22.9l10.4,29.1l52-18.7l8.3,20.8l-52,18.7l20.8,54L1612.6,2350.4L1612.6,2350.4z M1893.2,2215.3l-24.9,14.5l-24.9-20.8  l-45.7,27l6.2,31.2l-24.9,14.5l-22.9-141.3l24.9-14.5L1893.2,2215.3L1893.2,2215.3L1893.2,2215.3z M1824.6,2194.5l-41.6-33.3  l10.4,52L1824.6,2194.5L1824.6,2194.5z M1918.1,2196.6l-83.1-103.9l31.2-24.9l74.8,56.1l-35.3-87.3l31.2-24.9l83.1,103.9l-18.7,16.6  l-66.5-83.1l45.7,99.8l-20.8,16.6l-87.3-66.5l66.5,83.1L1918.1,2196.6L1918.1,2196.6L1918.1,2196.6z M2051.1,2086.5l-95.6-93.5  l68.6-70.7l16.6,16.6l-49.9,52l20.8,20.8l45.7-47.8l16.6,16.6l-45.7,47.8l27,24.9l52-54l16.6,16.6L2051.1,2086.5L2051.1,2086.5  L2051.1,2086.5z M2148.8,1982.5l-108.1-79l33.3-45.7c8.3-12.5,16.6-18.7,20.8-22.9c6.2-4.2,12.5-6.2,18.7-4.2  c6.2,0,14.5,4.2,20.8,8.3c8.3,6.2,12.5,12.5,14.5,22.9c2.1,8.3,0,18.7-6.2,29.1c6.2-2.1,12.5-4.2,16.6-4.2h27l31.2,2.1l-18.7,24.9  l-35.3-2.1h-24.9c-4.2,0-6.2,2.1-8.3,4.2s-6.2,4.2-8.3,10.4l-4.2,4.2l45.7,33.3L2148.8,1982.5L2148.8,1982.5L2148.8,1982.5z   M2101,1914l12.5-16.6c8.3-10.4,12.5-16.6,12.5-20.8c2.1-4.2,0-6.2,0-10.4s-4.2-6.2-6.2-8.3c-4.2-2.1-6.2-4.2-10.4-4.2  s-6.2,2.1-10.4,4.2c-2.1,2.1-6.2,6.2-12.5,14.5L2074,1889L2101,1914L2101,1914L2101,1914z M2234,1857.9l-114.3-68.6l14.5-22.9  l114.3,68.6L2234,1857.9z M2263.1,1699.9l18.7-20.8c12.5,10.4,18.7,20.8,20.8,31.2c2.1,12.5,0,22.9-6.2,37.4  c-8.3,16.6-18.7,27-35.3,31.2s-33.3,2.1-52-6.2c-20.8-10.4-33.3-22.9-39.5-37.4c-6.2-16.6-4.2-31.2,2.1-49.9  c6.2-14.5,16.6-24.9,31.2-29.1c8.3-2.1,16.6-4.2,29.1-2.1l-6.2,27c-6.2-2.1-12.5,0-18.7,2.1s-10.4,8.3-12.5,14.5  c-4.2,8.3-4.2,18.7,0,27s12.5,16.6,27,22.9c14.5,8.3,27,10.4,37.4,8.3c8.3-2.1,16.6-8.3,20.8-16.6c2.1-6.2,4.2-12.5,2.1-18.7  C2275.6,1712.4,2271.4,1706.2,2263.1,1699.9L2263.1,1699.9L2263.1,1699.9z M2371.2,1546.1l-8.3,27l-33.3,2.1l-16.6,49.9l24.9,20.8  l-8.3,27l-110.1-91.4l8.3-27L2371.2,1546.1L2371.2,1546.1z M2304.7,1577.3l-52,2.1l41.6,33.3L2304.7,1577.3z"></path>
<g>
	<path d="M97.7,1244.8l2.1-49.9c0-10.4,2.1-18.7,4.2-24.9c2.1-8.3,6.2-14.5,12.5-18.7c6.2-6.2,14.5-8.3,22.9-12.5   c8.3-2.1,18.7-4.2,31.2-2.1c10.4,0,20.8,2.1,29.1,6.2c10.4,4.2,16.6,8.3,22.9,14.5c4.2,4.2,8.3,10.4,10.4,18.7   c2.1,6.2,2.1,14.5,2.1,24.9l-2.1,49.9L97.7,1244.8L97.7,1244.8z M120.5,1219.9l89.4,4.2v-37.4c0-4.2-2.1-8.3-4.2-10.4   c-2.1-2.1-6.2-6.2-12.5-8.3c-6.2-2.1-14.5-2.1-24.9-4.2c-10.4,0-18.7,0-24.9,2.1s-10.4,4.2-12.5,6.2s-6.2,8.3-6.2,12.5   c-2.1,4.2-2.1,10.4-2.1,22.9L120.5,1219.9L120.5,1219.9L120.5,1219.9z M239,1120.1l-130.9-22.9l16.6-97.7l22.9,4.2l-12.5,70.7   l29.1,6.2l12.5-66.5l20.8,4.2l-12.5,66.5l35.3,6.2l12.5-72.7l22.9,4.2L239,1120.1L239,1120.1L239,1120.1z M261.8,1001.7L133,962.2   l12.5-41.6c4.2-16.6,8.3-24.9,10.4-31.2c4.2-6.2,10.4-12.5,18.7-14.5s16.6-2.1,27,0c8.3,2.1,14.5,6.2,18.7,10.4s8.3,10.4,8.3,14.5   c2.1,6.2,2.1,10.4,2.1,14.5c0,6.2-2.1,16.6-6.2,27l-4.2,16.6l49.9,18.7L261.8,1001.7L261.8,1001.7z M162.1,943.5l37.4,10.4   l4.2-14.5c2.1-10.4,4.2-16.6,4.2-20.8s-2.1-6.2-4.2-10.4c-2.1-2.1-6.2-4.2-8.3-6.2c-4.2-2.1-8.3-2.1-12.5,0s-6.2,4.2-8.3,8.3   c-2.1,2.1-4.2,8.3-6.2,18.7L162.1,943.5L162.1,943.5L162.1,943.5z M340.8,787.6l-12.5,27l-33.3-2.1l-20.8,49.9l22.9,22.9l-10.4,27   L185,810.5l10.4-27L340.8,787.6L340.8,787.6z M272.2,812.6l-54-2.1l39.5,35.3L272.2,812.6L272.2,812.6z M347,779.3l-114.3-68.6   l29.1-49.9c8.3-12.5,14.5-20.8,18.7-24.9s12.5-6.2,18.7-6.2c8.3,0,14.5,2.1,20.8,6.2c8.3,4.2,14.5,12.5,16.6,20.8   s2.1,18.7-2.1,29.1c6.2-4.2,12.5-6.2,16.6-6.2c6.2-2.1,14.5-2.1,27-2.1h31.2l-16.6,27l-35.3,2.1c-12.5,0-20.8,2.1-24.9,2.1   s-6.2,2.1-8.3,4.2c-2.1,2.1-4.2,6.2-8.3,10.4l-4.2,4.2l47.8,29.1L347,779.3L347,779.3L347,779.3z M293,714.9l10.4-16.6   c6.2-10.4,10.4-18.7,10.4-20.8v-10.4c-2.1-2.1-4.2-6.2-6.2-8.3c-4.2-2.1-8.3-2.1-10.4-2.1c-4.2,0-6.2,2.1-10.4,6.2   c-2.1,2.1-4.2,8.3-10.4,16.6L266,698.3L293,714.9L293,714.9z M432.3,642.1l-89.4-68.6L318,604.7l-18.7-14.5l64.4-85.2l18.7,14.5   l-24.9,31.2l89.4,68.6L432.3,642.1z M482.1,579.8l-95.6-93.5l29.1-29.1l81,47.8l-47.8-81l29.1-29.1l95.6,93.5l-18.7,18.7L480,432.3   l56.1,93.5l-18.7,18.7l-93.5-56.1l74.8,72.7L482.1,579.8z M590.2,473.8l-81-106l79-60.3l14.5,18.7l-58.2,43.6l18.7,22.9l54-41.6   l14.5,18.7l-54,41.6l22.9,29.1l60.3-45.7l14.5,18.7L590.2,473.8L590.2,473.8L590.2,473.8z M687.9,399l-68.6-116.4l22.9-12.5   l93.5,49.9L690,243.1l20.8-12.5L779.3,347l-22.9,14.5L665,311.7l43.6,74.8L687.9,399L687.9,399z M829.2,322.1l-45.7-101.8   l-35.3,16.6l-8.3-20.8l97.7-43.6l8.3,20.8l-35.3,16.6l45.7,101.8L829.2,322.1L829.2,322.1L829.2,322.1z M928.9,212   c-4.2-12.5-4.2-24.9-2.1-35.3c2.1-8.3,4.2-14.5,8.3-20.8s8.3-12.5,14.5-16.6c6.2-6.2,16.6-10.4,27-12.5c18.7-4.2,35.3-2.1,49.9,6.2   c12.5,12.5,22.9,27,27,47.8s4.2,39.5-4.2,54s-22.9,24.9-41.6,29.1s-35.3,2.1-49.9-6.2C943.5,247.3,933.1,232.8,928.9,212L928.9,212   L928.9,212z M953.9,205.7c4.2,14.5,10.4,24.9,18.7,31.2s18.7,8.3,29.1,4.2c10.4-2.1,18.7-8.3,22.9-16.6s6.2-20.8,2.1-37.4   c-4.2-14.5-10.4-24.9-18.7-31.2s-18.7-6.2-29.1-4.2c-10.4,2.1-18.7,8.3-22.9,16.6C951.8,176.6,951.8,189.1,953.9,205.7z    M1086.9,243.1l-16.6-133l91.4-10.4l2.1,22.9l-62.3,8.3l4.2,31.2l56.1-6.2l2.1,22.9l-56.1,6.2l6.2,56.1L1086.9,243.1L1086.9,243.1z    M1276,232.8l4.2-110.1l-39.5-2.1V97.7l106,4.2v22.9l-39.5-2.1l-4.2,110.1L1276,232.8L1276,232.8L1276,232.8z M1357,236.9l20.8-133   l56.1,8.3c14.5,2.1,24.9,4.2,31.2,8.3s10.4,8.3,12.5,14.5s4.2,14.5,2.1,20.8c-2.1,10.4-6.2,18.7-12.5,22.9   c-6.2,6.2-16.6,8.3-29.1,8.3c6.2,4.2,10.4,8.3,12.5,12.5c4.2,4.2,6.2,12.5,12.5,22.9l12.5,29.1l-33.3-2.1l-14.5-31.2   c-6.2-10.4-8.3-18.7-10.4-20.8s-4.2-6.2-6.2-8.3c-4.2-2.1-8.3-2.1-14.5-4.2h-6.2l-8.3,56.1L1357,236.9L1357,236.9L1357,236.9z    M1394.4,164.2l20.8,2.1c12.5,2.1,20.8,2.1,24.9,2.1s6.2-2.1,8.3-4.2s4.2-6.2,4.2-10.4s0-8.3-2.1-10.4s-4.2-6.2-8.3-6.2   c-2.1,0-8.3-2.1-18.7-4.2l-20.8-4.2L1394.4,164.2L1394.4,164.2L1394.4,164.2z"></path>
	<path d="M1602.2,290.9l-29.1-8.3l-2.1-33.3l-52-14.5l-18.7,27l-27-8.3l87.3-114.3l27,8.3L1602.2,290.9L1602.2,290.9L1602.2,290.9z    M1569,226.5l-4.2-52l-31.2,41.6L1569,226.5L1569,226.5z M1610.6,297.2l54-122.6l24.9,10.4l14.5,103.9l35.3-81l22.9,10.4l-54,122.6   l-24.9-12.5l-14.5-101.8l-35.3,79L1610.6,297.2L1610.6,297.2z M1747.7,309.6l22.9,10.4c-4.2,8.3-4.2,16.6-2.1,20.8   s6.2,10.4,14.5,14.5c8.3,4.2,14.5,6.2,18.7,6.2s10.4-4.2,12.5-8.3c2.1-2.1,2.1-6.2,2.1-8.3s-2.1-6.2-6.2-10.4   c-2.1-2.1-8.3-8.3-14.5-16.6c-10.4-10.4-16.6-18.7-18.7-27c-4.2-10.4-2.1-20.8,4.2-29.1c4.2-6.2,8.3-10.4,14.5-12.5   s12.5-4.2,20.8-2.1s16.6,4.2,24.9,10.4c14.5,8.3,22.9,18.7,27,29.1s2.1,20.8-4.2,31.2l-22.9-12.5c2.1-6.2,2.1-12.5,2.1-16.6   c-2.1-4.2-6.2-8.3-12.5-12.5c-6.2-4.2-12.5-6.2-18.7-6.2c-4.2,0-6.2,2.1-8.3,4.2c-2.1,2.1-2.1,6.2,0,8.3   c2.1,4.2,6.2,10.4,16.6,20.8s16.6,16.6,20.8,22.9s6.2,12.5,6.2,18.7s-2.1,14.5-6.2,20.8c-4.2,6.2-10.4,12.5-16.6,14.5   c-6.2,4.2-14.5,4.2-22.9,4.2s-16.6-4.2-27-10.4c-14.5-8.3-22.9-18.7-27-29.1C1739.4,336.7,1741.5,324.2,1747.7,309.6L1747.7,309.6   L1747.7,309.6z M1832.9,413.5l81-106l35.3,27c12.5,10.4,20.8,16.6,24.9,20.8c4.2,6.2,6.2,14.5,6.2,22.9s-4.2,16.6-10.4,24.9   c-4.2,6.2-10.4,10.4-16.6,14.5s-12.5,4.2-16.6,4.2c-6.2,0-10.4-2.1-14.5-4.2c-6.2-2.1-14.5-8.3-22.9-16.6l-14.5-10.4l-31.2,39.5   L1832.9,413.5L1832.9,413.5z M1922.3,342.9l-22.9,29.1l12.5,8.3c8.3,6.2,14.5,10.4,18.7,10.4s6.2,2.1,10.4,0s6.2-4.2,8.3-6.2   c2.1-4.2,4.2-8.3,4.2-12.5s-2.1-8.3-4.2-10.4s-6.2-6.2-14.5-12.5L1922.3,342.9L1922.3,342.9L1922.3,342.9z M1972.2,438.5   c10.4-10.4,18.7-16.6,29.1-20.8c6.2-2.1,14.5-4.2,20.8-4.2c8.3,0,14.5,2.1,20.8,4.2c8.3,4.2,16.6,8.3,24.9,16.6   c14.5,14.5,20.8,29.1,20.8,45.7s-8.3,33.3-22.9,47.8c-14.5,14.5-31.2,22.9-47.8,22.9s-33.3-6.2-45.7-20.8   c-14.5-14.5-20.8-29.1-20.8-45.7C1949.3,469.7,1957.6,453,1972.2,438.5L1972.2,438.5L1972.2,438.5z M1992.9,457.2   c-10.4,10.4-16.6,20.8-16.6,31.2s2.1,18.7,10.4,27s16.6,10.4,27,10.4s20.8-6.2,31.2-16.6c10.4-10.4,16.6-20.8,16.6-31.2   s-2.1-18.7-10.4-27s-16.6-12.5-27-10.4C2013.7,440.6,2003.3,446.8,1992.9,457.2L1992.9,457.2z M2028.3,590.2l106-81l35.3,45.7   c8.3,10.4,14.5,20.8,16.6,27s2.1,12.5,0,20.8c-2.1,6.2-6.2,12.5-12.5,16.6c-8.3,6.2-16.6,8.3-24.9,8.3s-16.6-6.2-24.9-14.5v18.7   c0,6.2-4.2,14.5-8.3,24.9l-10.4,29.1l-18.7-24.9l10.4-33.3c4.2-12.5,6.2-18.7,6.2-22.9v-10.4c0-4.2-4.2-6.2-6.2-12.5l-4.2-4.2   L2049,611L2028.3,590.2L2028.3,590.2L2028.3,590.2z M2105.2,565.3l12.5,16.6c8.3,10.4,12.5,16.6,16.6,18.7c2.1,2.1,6.2,2.1,8.3,2.1   c4.2,0,6.2-2.1,10.4-4.2s6.2-6.2,6.2-10.4s0-8.3-2.1-10.4s-4.2-6.2-12.5-16.6l-12.5-16.6L2105.2,565.3L2105.2,565.3L2105.2,565.3z    M2121.8,723.2l95.6-56.1l-20.8-33.3l18.7-12.5l54,91.4l-18.7,12.5l-20.8-33.3l-95.6,56.1L2121.8,723.2L2121.8,723.2z    M2204.9,889.4l-12.5-27l22.9-22.9l-22.9-47.8l-33.3,2.1l-12.5-27l143.4-8.3l12.5,27L2204.9,889.4L2204.9,889.4z M2231.9,822.9   l37.4-37.4l-52,4.2L2231.9,822.9z M2213.2,916.5l106-35.3l-12.5-37.4l20.8-6.2l33.3,101.8l-20.8,6.2l-12.5-37.4l-106,35.3   L2213.2,916.5L2213.2,916.5L2213.2,916.5z M2236.1,991.3l130.9-31.2l6.2,27l-130.9,31.2L2236.1,991.3z M2313,1024.5   c12.5-2.1,24.9-2.1,35.3,0c6.2,2.1,14.5,4.2,20.8,10.4c6.2,4.2,10.4,10.4,14.5,14.5c4.2,8.3,8.3,16.6,10.4,27   c2.1,18.7,0,35.3-10.4,49.9s-27,22.9-47.8,24.9c-20.8,4.2-39.5,0-52-10.4c-14.5-10.4-22.9-24.9-24.9-43.6s0-35.3,10.4-49.9   S2292.2,1026.6,2313,1024.5L2313,1024.5L2313,1024.5z M2317.1,1051.5c-14.5,2.1-24.9,8.3-33.3,14.5c-6.2,8.3-8.3,16.6-8.3,29.1   s6.2,18.7,14.5,24.9s20.8,8.3,35.3,4.2c14.5-2.1,24.9-8.3,33.3-14.5c6.2-8.3,8.3-16.6,6.2-29.1c-2.1-10.4-6.2-18.7-14.5-24.9   C2346.2,1051.5,2333.7,1049.5,2317.1,1051.5z M2267.2,1180.4l133-2.1v27l-89.4,56.1l89.4-2.1v24.9l-133,2.1v-27l87.3-56.1   l-87.3,2.1V1180.4z"></path>
</g>
<path d="M2111.4,899.8C1972.2,559,1639.7,320,1249,320c-197.4,0-378.2,60.3-529.9,164.2c52-16.6,110.1-24.9,168.3-24.9  c363.7,0,556.9,220.3,556.9,538.2c0,22.9-2.1,43.6-4.2,64.4c-4.2,27-6.2,56.1-6.2,85.2c0,180.8,166.3,347,365.8,347  C2042.8,1494.2,2229.8,1163.8,2111.4,899.8L2111.4,899.8L2111.4,899.8z"></path>
<path d="M515.4,679.6c-224.4,290.9-266,698.3-70.7,1034.9c97.7,170.4,243.1,297.2,407.3,376.1c-39.5-37.4-76.9-83.1-106-133  c-182.9-315.9-87.3-592.3,187-750.2c18.7-10.4,39.5-20.8,58.2-29.1c24.9-10.4,52-22.9,76.9-37.4c155.9-89.4,218.2-315.9,116.4-490.4  C1066.1,442.6,685.8,444.7,515.4,679.6L515.4,679.6L515.4,679.6z"></path>
<path d="M1122.2,2171.7C1123.6,2171.7,1123.6,2171.7,1122.2,2171.7c363.7,49.9,737.7-120.5,933.1-457.2  c97.7-170.4,137.2-359.5,120.5-540.3c-12.5,54-33.3,106-62.3,157.9c-180.8,315.9-467.6,372-741.9,212c-18.7-10.4-37.4-22.9-54-35.3  c-22.9-16.6-45.7-33.3-70.7-47.8c-155.9-89.4-382.4-29.1-482.1,143.4C642.1,1814.2,835.4,2142.6,1122.2,2171.7L1122.2,2171.7z"></path>
</svg>
