<?xml version="1.0" encoding="UTF-8"?>
<svg xmlns="http://www.w3.org/2000/svg" width="165" height="165" viewBox="0 0 165 165" fill="none">
  <circle cx="82.5" cy="82.5" r="82.5" fill="#EEEEEE"></circle>
  <g clip-path="url(#clip0_275_6797)">
    <path d="M56.0496 64.3304C68.3496 69.9804 82.6096 85.9304 82.6096 85.9304C82.6096 85.9304 61.5096 109.48 48.5096 109.48C42.9007 109.453 37.4856 107.425 33.2383 103.761C28.991 100.098 26.19 95.0389 25.3391 89.4948C24.4882 83.9506 25.6432 78.2849 28.5964 73.5162C31.5495 68.7476 36.1072 65.1891 41.4496 63.4805" stroke="#0F73FE" stroke-width="2" stroke-miterlimit="10" stroke-linecap="round"></path>
    <path d="M48.9991 68.26C53.4892 68.26 57.1291 64.6201 57.1291 60.13C57.1291 55.6399 53.4892 52 48.9991 52C44.5091 52 40.8691 55.6399 40.8691 60.13C40.8691 64.6201 44.5091 68.26 48.9991 68.26Z" stroke="#0F73FE" stroke-width="2" stroke-miterlimit="10" stroke-linecap="round"></path>
    <path d="M41.6992 84.3086V101.989" stroke="#0F73FE" stroke-width="2" stroke-miterlimit="10" stroke-linecap="round"></path>
    <path d="M55.8496 84.3086V101.989" stroke="#0F73FE" stroke-width="2" stroke-miterlimit="10" stroke-linecap="round"></path>
    <path d="M55.9109 99.7906L61.6709 94.0306C62.1281 93.5739 62.4907 93.0314 62.7378 92.4342C62.9849 91.837 63.1117 91.1969 63.1109 90.5507V79.0406C63.1109 77.6085 62.5419 76.235 61.5292 75.2223C60.5165 74.2096 59.143 73.6406 57.7109 73.6406H40.2809C38.8487 73.6406 37.4752 74.2096 36.4625 75.2223C35.4498 76.235 34.8809 77.6085 34.8809 79.0406V90.6606C34.8831 91.8936 35.3718 93.076 36.2409 93.9507L41.4809 99.1807" stroke="#0F73FE" stroke-width="2" stroke-miterlimit="10" stroke-linecap="round"></path>
    <path d="M109.169 64.3304C96.8694 69.9804 82.6094 85.9304 82.6094 85.9304C82.6094 85.9304 103.669 109.48 116.679 109.48C122.287 109.45 127.701 107.421 131.946 103.756C136.192 100.092 138.991 95.0333 139.841 89.4899C140.69 83.9464 139.535 78.2818 136.581 73.5142C133.628 68.7466 129.071 65.1888 123.729 63.4805" stroke="#0F73FE" stroke-width="2" stroke-miterlimit="10" stroke-linecap="round"></path>
    <path d="M116.23 68.26C120.72 68.26 124.36 64.6201 124.36 60.13C124.36 55.6399 120.72 52 116.23 52C111.74 52 108.1 55.6399 108.1 60.13C108.1 64.6201 111.74 68.26 116.23 68.26Z" stroke="#0F73FE" stroke-width="2" stroke-miterlimit="10" stroke-linecap="round"></path>
    <path d="M123.529 84.3086V101.989" stroke="#0F73FE" stroke-width="2" stroke-miterlimit="10" stroke-linecap="round"></path>
    <path d="M109.381 84.3086V101.989" stroke="#0F73FE" stroke-width="2" stroke-miterlimit="10" stroke-linecap="round"></path>
    <path d="M109.309 99.7906L103.519 93.9907C102.617 93.0892 102.11 91.8661 102.109 90.5907V79.0406C102.109 77.6085 102.678 76.235 103.691 75.2223C104.704 74.2096 106.077 73.6406 107.509 73.6406H124.939C126.372 73.6406 127.745 74.2096 128.758 75.2223C129.77 76.235 130.339 77.6085 130.339 79.0406V90.8407C130.343 91.3972 130.236 91.9489 130.025 92.4639C129.814 92.9788 129.502 93.4468 129.109 93.8407L123.739 99.2007" stroke="#0F73FE" stroke-width="2" stroke-miterlimit="10" stroke-linecap="round"></path>
  </g>
  <defs>
    <clipPath id="clip0_275_6797">
      <rect width="117.23" height="59.48" fill="white" transform="translate(24 51)"></rect>
    </clipPath>
  </defs>
</svg>
