<?xml version="1.0" encoding="UTF-8"?>
<svg xmlns="http://www.w3.org/2000/svg" width="165" height="165" viewBox="0 0 165 165" fill="none">
  <circle cx="82.5" cy="82.5" r="82.5" fill="#EEEEEE"></circle>
  <g clip-path="url(#clip0_456_6794)">
    <path d="M99.1598 127.289H66.6798C65.5357 127.278 64.4301 126.874 63.5475 126.146C62.6648 125.418 62.0585 124.41 61.8298 123.289L57.9398 104.469C57.781 103.746 57.7866 102.997 57.9562 102.277C58.1258 101.556 58.4551 100.883 58.9197 100.307C59.3844 99.7312 59.9725 99.267 60.6406 98.9488C61.3087 98.6306 62.0398 98.4665 62.7798 98.4688H103.05C103.787 98.476 104.514 98.6462 105.177 98.9672C105.841 99.2882 106.426 99.7519 106.889 100.325C107.353 100.899 107.684 101.568 107.858 102.284C108.033 103 108.047 103.746 107.9 104.469L104 123.359C103.768 124.47 103.16 125.468 102.278 126.184C101.397 126.9 100.295 127.29 99.1598 127.289Z" stroke="#0F73FE" stroke-width="1.5" stroke-miterlimit="10"></path>
    <path d="M82.9102 116.12C85.1193 116.12 86.9102 114.674 86.9102 112.89C86.9102 111.106 85.1193 109.66 82.9102 109.66C80.701 109.66 78.9102 111.106 78.9102 112.89C78.9102 114.674 80.701 116.12 82.9102 116.12Z" stroke="#0F73FE" stroke-width="1.5" stroke-miterlimit="10"></path>
    <path d="M106.82 112.89L111.36 111.64C113.358 111.087 115.092 109.839 116.252 108.122C117.413 106.404 117.922 104.33 117.69 102.27L115.31 92.12C115.143 90.6394 114.641 89.2163 113.842 87.9585C113.043 86.7007 111.969 85.6411 110.7 84.86L108.06 83.23C107.695 82.9981 107.384 82.6899 107.148 82.3264C106.913 81.963 106.759 81.553 106.698 81.1245C106.636 80.696 106.668 80.2593 106.791 79.8442C106.914 79.4292 107.125 79.0456 107.41 78.72L109.57 76.3199C110.281 75.5355 110.801 74.5979 111.091 73.58C111.38 72.562 111.431 71.4909 111.24 70.45C109.55 61.27 102.82 36.75 83.2402 36.75C63.6602 36.75 56.9802 61.27 55.2402 70.45C55.049 71.4909 55.1002 72.562 55.3898 73.58C55.6794 74.5979 56.1997 75.5355 56.9102 76.3199L59.0702 78.72C59.3554 79.0456 59.5667 79.4292 59.6897 79.8442C59.8127 80.2593 59.8444 80.696 59.7827 81.1245C59.7209 81.553 59.5672 81.963 59.332 82.3264C59.0968 82.6899 58.7857 82.9981 58.4202 83.23L55.7802 84.86C54.5113 85.6411 53.4369 86.7007 52.6381 87.9585C51.8394 89.2163 51.3374 90.6394 51.1702 92.12L48.7902 102.27C48.5558 104.33 49.0647 106.406 50.2253 108.124C51.3858 109.842 53.1217 111.089 55.1202 111.64L59.6602 112.89" stroke="#0F73FE" stroke-width="1.5" stroke-miterlimit="10"></path>
    <path d="M99.7299 71.7419C99.7299 82.6619 92.1999 91.5119 82.9199 91.5119C73.6399 91.5119 66.1099 82.6619 66.1099 71.7419C66.1099 63.1119 73.6299 63.3719 82.9199 63.3719C92.2099 63.3719 99.7299 63.1119 99.7299 71.7419Z" stroke="#0F73FE" stroke-width="1.5" stroke-miterlimit="10"></path>
  </g>
  <defs>
    <clipPath id="clip0_456_6794">
      <rect width="70.49" height="92.04" fill="white" transform="translate(48 36)"></rect>
    </clipPath>
  </defs>
</svg>
