<?xml version="1.0" encoding="UTF-8"?>
<svg xmlns="http://www.w3.org/2000/svg" width="165" height="165" viewBox="0 0 165 165" fill="none">
  <circle cx="82.5" cy="82.5" r="82.5" fill="#EEEEEE"></circle>
  <g clip-path="url(#clip0_456_6793)">
    <path d="M82.53 128.31C107.261 128.31 127.31 108.261 127.31 83.53C127.31 58.7987 107.261 38.75 82.53 38.75C57.7987 38.75 37.75 58.7987 37.75 83.53C37.75 108.261 57.7987 128.31 82.53 128.31Z" stroke="#0F73FE" stroke-width="1.5" stroke-miterlimit="10"></path>
    <path d="M105.51 60.5586C108.527 63.5756 110.921 67.1574 112.554 71.0995C114.187 75.0416 115.027 79.2667 115.027 83.5336C115.027 87.8005 114.187 92.0256 112.554 95.9677C110.921 99.9098 108.527 103.492 105.51 106.509C102.491 109.532 98.9061 111.931 94.9595 113.568C91.0129 115.204 86.7824 116.047 82.5099 116.047C78.2374 116.047 74.0068 115.204 70.0602 113.568C66.1136 111.931 62.5285 109.532 59.5099 106.509C56.4926 103.492 54.0991 99.9098 52.4661 95.9677C50.8332 92.0256 49.9927 87.8005 49.9927 83.5336C49.9927 79.2667 50.8332 75.0416 52.4661 71.0995C54.0991 67.1574 56.4926 63.5756 59.5099 60.5586" stroke="#0F73FE" stroke-width="1.5" stroke-miterlimit="10"></path>
    <path d="M68.4402 97.6202C64.7042 93.8829 62.6055 88.8147 62.6055 83.5302C62.6055 78.2457 64.7042 73.1776 68.4402 69.4402C72.1776 65.7042 77.2457 63.6055 82.5302 63.6055C87.8147 63.6055 92.8828 65.7042 96.6202 69.4402C100.356 73.1776 102.455 78.2457 102.455 83.5302C102.455 88.8147 100.356 93.8829 96.6202 97.6202" stroke="#0F73FE" stroke-width="1.5" stroke-miterlimit="10"></path>
    <path d="M82.5301 91.7116C87.0478 91.7116 90.7101 88.0493 90.7101 83.5316C90.7101 79.0139 87.0478 75.3516 82.5301 75.3516C78.0124 75.3516 74.3501 79.0139 74.3501 83.5316C74.3501 88.0493 78.0124 91.7116 82.5301 91.7116Z" stroke="#0F73FE" stroke-width="1.5" stroke-miterlimit="10"></path>
    <path d="M76.6901 89.2812L65.3501 100.681C69.8994 105.228 76.0681 107.782 82.5001 107.782C88.9321 107.782 95.1008 105.228 99.6501 100.681L88.3201 89.2812" stroke="#0F73FE" stroke-width="1.5" stroke-miterlimit="10"></path>
    <path d="M68.4398 69.4684L56.3198 57.3484C59.7622 53.9054 63.8491 51.1741 68.3471 49.3107C72.8451 47.4473 77.6661 46.4883 82.5348 46.4883C87.4035 46.4883 92.2246 47.4473 96.7226 49.3107C101.221 51.1741 105.307 53.9054 108.75 57.3484L96.6198 69.4684" stroke="#0F73FE" stroke-width="1.5" stroke-miterlimit="10"></path>
  </g>
  <defs>
    <clipPath id="clip0_456_6793">
      <rect width="91.06" height="91.06" fill="white" transform="translate(37 38)"></rect>
    </clipPath>
  </defs>
</svg>
